<svg width="23" height="23" viewBox="0 0 23 23" fill="none" xmlns="http://www.w3.org/2000/svg">
<path d="M12.5543 9.18109L12.5543 11.4936H10.3546L10.3547 9.181H11.0879V8.44778C11.0879 8.04267 10.7598 7.71455 10.3547 7.71455H8.52162C7.71179 7.71455 7.05518 7.05794 7.05518 6.24811C7.05518 5.43827 7.71179 4.78166 8.52162 4.78166H14.3874C14.7926 4.78166 15.1207 4.45355 15.1207 4.04844C15.1207 3.64333 14.7926 3.31522 14.3874 3.31522H12.5544C11.7446 3.31522 11.0879 2.65861 11.0879 1.84877V0.382324H11.8211L11.8212 1.84886C11.8212 2.25397 12.1493 2.58208 12.5544 2.58208H14.3874C15.1973 2.58208 15.8539 3.23869 15.8539 4.04853C15.8539 4.85836 15.1973 5.51497 14.3874 5.51497H8.52162C8.11651 5.51497 7.7884 5.84308 7.7884 6.24819C7.7884 6.65331 8.11651 6.98142 8.52162 6.98142H10.3547C11.1645 6.98142 11.8211 7.63803 11.8211 8.44786V9.18109H12.5543Z" fill="white"/>
<path d="M5.6869 10.7992L5.68679 10.7992C4.44415 10.9327 3.2449 11.5871 2.32535 12.5032C1.40592 13.4193 0.747046 14.6161 0.608938 15.859C0.246257 19.0132 2.50949 21.8641 5.66369 22.2271C6.94964 22.375 8.24745 22.0845 9.34779 21.403L9.34782 21.4031L9.35249 21.4001C9.8517 21.0753 10.4211 20.875 11.0136 20.8161C11.158 20.8033 11.3049 20.7971 11.4544 20.7971C11.5966 20.7971 11.7373 20.8019 11.8764 20.812C12.4774 20.869 13.0557 21.0713 13.5614 21.4013L13.5614 21.4014L13.5667 21.4047C16.2689 23.0724 19.8111 22.2337 21.4788 19.5316C22.1567 18.4333 22.4454 17.1388 22.2979 15.8568C22.16 14.6148 21.5011 13.4185 20.5816 12.5028C19.662 11.5869 18.4627 10.9327 17.22 10.7992L17.22 10.7992C17.01 10.7766 16.7987 10.7651 16.5869 10.7651H6.32172C6.10959 10.7651 5.8976 10.7766 5.6869 10.7992Z" fill="#00FF26" stroke="black" stroke-width="0.5"/>
<path d="M14.0193 17.6127C14.6267 17.6127 15.1191 17.1203 15.1191 16.5129C15.1191 15.9055 14.6267 15.4131 14.0193 15.4131C13.4118 15.4131 12.9194 15.9055 12.9194 16.5129C12.9194 17.1203 13.4118 17.6127 14.0193 17.6127Z" fill="#EA3836"/>
<path d="M21.0183 13.3867C16.6058 18.332 6.66797 20.1724 2.78662 20.719C4.60099 22.2529 7.19735 22.4424 9.21521 21.1886C9.74829 20.8418 10.3565 20.6281 10.9893 20.5654C11.1425 20.5533 11.298 20.5471 11.4545 20.5471C11.6033 20.5471 11.7511 20.5522 11.8974 20.5628C12.5397 20.6233 13.1578 20.8393 13.6982 21.1919C16.2828 22.7871 19.671 21.9849 21.2662 19.4003C21.9147 18.3496 22.1908 17.1112 22.0496 15.8848C21.9315 14.976 21.5756 14.1145 21.0183 13.3867Z" fill="#00FF26"/>
<path d="M5.58842 13.9482H7.05486V15.7813H8.88794V17.2478H7.05486V19.0808H5.58842V17.2478H3.75537V15.7813H5.58842V13.9482Z" fill="#383856"/>
<path d="M16.5857 15.413C17.1931 15.413 17.6855 14.9206 17.6855 14.3132C17.6855 13.7058 17.1931 13.2134 16.5857 13.2134C15.9783 13.2134 15.4858 13.7058 15.4858 14.3132C15.4858 14.9206 15.9783 15.413 16.5857 15.413Z" fill="#91CECE"/>
<path d="M16.5857 19.8124C17.1931 19.8124 17.6855 19.32 17.6855 18.7126C17.6855 18.1052 17.1931 17.6128 16.5857 17.6128C15.9783 17.6128 15.4858 18.1052 15.4858 18.7126C15.4858 19.32 15.9783 19.8124 16.5857 19.8124Z" fill="#91CECE"/>
<path d="M19.1516 17.6127C19.759 17.6127 20.2514 17.1203 20.2514 16.5129C20.2514 15.9055 19.759 15.4131 19.1516 15.4131C18.5442 15.4131 18.0518 15.9055 18.0518 16.5129C18.0518 17.1203 18.5442 17.6127 19.1516 17.6127Z" fill="#EA3836"/>
<path d="M10.7212 11.0153V9.54883H12.1876V11.0153" fill="#874D1B"/>
<path d="M14.5905 15.5781C14.6968 15.7493 14.7533 15.9466 14.754 16.1478C14.754 16.7553 14.2616 17.2477 13.6542 17.2477C13.4529 17.2469 13.2557 17.1905 13.0845 17.0842C13.3975 17.6026 14.0721 17.769 14.5905 17.4559C15.1089 17.1428 15.2754 16.4683 14.9623 15.9498C14.8706 15.7977 14.7427 15.6701 14.5905 15.5781Z" fill="#D62121"/>
<path d="M17.1564 13.3784C17.2627 13.5496 17.3192 13.7469 17.3199 13.9481C17.3199 14.5556 16.8276 15.048 16.2201 15.048C16.0188 15.0472 15.8216 14.9908 15.6504 14.8845C15.9635 15.4028 16.638 15.5693 17.1564 15.2562C17.6748 14.9431 17.8413 14.2686 17.5282 13.7501C17.4365 13.598 17.3086 13.4705 17.1564 13.3784Z" fill="#83B2B7"/>
<path d="M19.7229 15.5781C19.8292 15.7493 19.8856 15.9466 19.8864 16.1478C19.8864 16.7553 19.394 17.2477 18.7865 17.2477C18.5853 17.2469 18.388 17.1905 18.2168 17.0842C18.5299 17.6026 19.2044 17.769 19.7229 17.4559C20.2413 17.1428 20.4077 16.4683 20.0946 15.9498C20.003 15.7977 19.875 15.6701 19.7229 15.5781Z" fill="#D62121"/>
<path d="M17.1564 17.7778C17.2627 17.949 17.3192 18.1463 17.3199 18.3476C17.3199 18.955 16.8276 19.4474 16.2201 19.4474C16.0188 19.4467 15.8216 19.3902 15.6504 19.2839C15.9635 19.8023 16.638 19.9687 17.1564 19.6556C17.6748 19.3425 17.8413 18.668 17.5282 18.1496C17.4365 17.9974 17.3086 17.8698 17.1564 17.7778Z" fill="#83B2B7"/>
<path d="M3.75537 16.8895V17.2477H5.58842V19.0807H7.05486V17.2477H8.8879V15.7812H8.27603C6.82794 16.7909 4.61986 16.892 3.75537 16.8895Z" fill="#202033"/>
<path d="M10.7212 10.9153V11.0154H12.1876V9.81104C11.8383 10.335 11.3213 10.7243 10.7212 10.9153Z" fill="#6B3713"/>
<path d="M8.88786 15.4146H7.42142V13.9482C7.42142 13.7458 7.25719 13.5815 7.05481 13.5815H5.58837C5.38599 13.5815 5.22176 13.7458 5.22176 13.9482V15.4146H3.75528C3.5529 15.4146 3.38867 15.5788 3.38867 15.7812V17.2476C3.38867 17.45 3.5529 17.6142 3.75528 17.6142H5.22172V19.0807C5.22172 19.2831 5.38595 19.4473 5.58833 19.4473H7.05477C7.25715 19.4473 7.42138 19.2831 7.42138 19.0807V17.6143H8.88781C9.0902 17.6143 9.25442 17.4501 9.25442 17.2477V15.7812C9.25447 15.5789 9.0902 15.4146 8.88786 15.4146ZM8.52125 16.8811H7.05481C6.85243 16.8811 6.6882 17.0453 6.6882 17.2477V18.7141H5.95498V17.2477C5.95498 17.0453 5.79075 16.8811 5.58837 16.8811H4.12189V16.1478H5.58833C5.79071 16.1478 5.95494 15.9836 5.95494 15.7812V14.3148H6.68816V15.7812C6.68816 15.9836 6.85238 16.1478 7.05477 16.1478H8.5212V16.8811H8.52125Z" fill="black"/>
<path d="M16.587 15.781C17.3969 15.781 18.0535 15.1244 18.0535 14.3146C18.0535 13.5048 17.3969 12.8481 16.587 12.8481C15.7772 12.8481 15.1206 13.5048 15.1206 14.3146C15.1206 15.1244 15.7772 15.781 16.587 15.781ZM16.587 13.5814C16.9921 13.5814 17.3203 13.9095 17.3203 14.3146C17.3203 14.7197 16.9921 15.0478 16.587 15.0478C16.1819 15.0478 15.8538 14.7197 15.8538 14.3146C15.8538 13.9095 16.1823 13.5814 16.587 13.5814Z" fill="black"/>
<path d="M16.587 17.2476C15.7772 17.2476 15.1206 17.9042 15.1206 18.714C15.1206 19.5238 15.7772 20.1804 16.587 20.1804C17.3969 20.1804 18.0535 19.5238 18.0535 18.714C18.0535 17.9041 17.3969 17.2476 16.587 17.2476ZM16.587 19.4472C16.1819 19.4472 15.8538 19.1191 15.8538 18.714C15.8538 18.3089 16.1819 17.9808 16.587 17.9808C16.9921 17.9808 17.3203 18.3089 17.3203 18.714C17.3203 19.1191 16.9921 19.4472 16.587 19.4472Z" fill="black"/>
<path d="M14.0206 15.0479C13.2108 15.0479 12.5542 15.7045 12.5542 16.5143C12.5542 17.3241 13.2108 17.9807 14.0206 17.9807C14.8305 17.9807 15.4871 17.3241 15.4871 16.5143C15.4871 15.7045 14.8305 15.0479 14.0206 15.0479ZM14.0206 17.2476C13.6155 17.2476 13.2874 16.9194 13.2874 16.5143C13.2874 16.1092 13.6155 15.7811 14.0206 15.7811C14.4257 15.7811 14.7539 16.1092 14.7539 16.5143C14.7539 16.9194 14.4257 17.2476 14.0206 17.2476Z" fill="black"/>
<path d="M19.153 15.0479C18.3431 15.0479 17.6865 15.7045 17.6865 16.5143C17.6865 17.3241 18.3431 17.9807 19.153 17.9807C19.9628 17.9807 20.6194 17.3241 20.6194 16.5143C20.6194 15.7045 19.9628 15.0479 19.153 15.0479ZM19.153 17.2476C18.7479 17.2476 18.4197 16.9194 18.4197 16.5143C18.4197 16.1092 18.7479 15.7811 19.153 15.7811C19.5581 15.7811 19.8862 16.1092 19.8862 16.5143C19.8862 16.9194 19.5581 17.2476 19.153 17.2476Z" fill="black"/>
</svg>
