<svg width="17" height="29" viewBox="0 0 17 29" fill="none" xmlns="http://www.w3.org/2000/svg">
<rect x="2.61865" y="2.38232" width="11.6716" height="24" rx="5.83582" fill="#6BED0E" stroke="black" stroke-width="4"/>
<path d="M9.73367 14.5088H10.3252V11.5514H9.14218L8.35352 10.7627H10.5223C10.8485 10.7627 11.1138 11.028 11.1138 11.3542V14.5088H11.7053L10.7195 15.4947L9.73367 14.5088Z" fill="white"/>
<path d="M7.36756 15.4947C7.04139 15.4947 6.77607 15.2293 6.77607 14.9032V11.7485H6.18457L7.1704 10.7627L8.15622 11.7485H7.56472V14.706H8.74771L9.52655 15.4846L9.54023 15.4947H7.36756Z" fill="white"/>
<path d="M10.7193 15.6917C10.6688 15.6917 10.6184 15.6725 10.5799 15.634L9.59404 14.6481C9.53762 14.5917 9.52068 14.507 9.55129 14.4333C9.58172 14.3595 9.65373 14.3116 9.73344 14.3116H10.1278V11.7484H9.14195C9.08967 11.7484 9.03951 11.7276 9.00254 11.6907L8.21388 10.902C8.15747 10.8456 8.14062 10.7609 8.17114 10.6871C8.20166 10.6134 8.27357 10.5654 8.35329 10.5654H10.5221C10.9571 10.5654 11.3108 10.9191 11.3108 11.3541V14.3116H11.7051C11.7848 14.3116 11.8568 14.3595 11.8872 14.4333C11.9179 14.507 11.9009 14.5917 11.8445 14.6481L10.8587 15.634C10.8202 15.6725 10.7697 15.6917 10.7193 15.6917ZM10.2094 14.7059L10.7193 15.2157L11.2291 14.7059H11.1136C11.0046 14.7059 10.9164 14.6177 10.9164 14.5087V11.3541C10.9164 11.1367 10.7395 10.9598 10.5221 10.9598H8.82925L9.22358 11.3541H10.1278C10.3452 11.3541 10.5221 11.531 10.5221 11.7484V14.5087C10.5221 14.6177 10.4339 14.7059 10.3249 14.7059H10.2094ZM9.53628 15.6917H7.36746C6.9326 15.6917 6.5788 15.338 6.5788 14.9031V11.9456H6.18447C6.10476 11.9456 6.03284 11.8976 6.00232 11.8239C5.97181 11.7502 5.98865 11.6654 6.04507 11.609L7.03089 10.6232C7.10791 10.5462 7.23268 10.5462 7.3097 10.6232L8.27405 11.5875C8.3244 11.6233 8.35723 11.682 8.35723 11.7484C8.35723 11.858 8.26472 11.9517 8.15805 11.9456C8.15747 11.9456 8.15679 11.9456 8.15612 11.9456H7.76179V14.5087H8.74762C8.79989 14.5087 8.85005 14.5295 8.88702 14.5665L9.67568 15.3552C9.73209 15.4116 9.74904 15.4963 9.71842 15.57C9.688 15.6438 9.61599 15.6917 9.53628 15.6917ZM6.66044 11.5513H6.77597C6.88485 11.5513 6.97313 11.6394 6.97313 11.7484V14.9031C6.97313 15.1204 7.14998 15.2974 7.36746 15.2974H9.06031L8.66598 14.9031H7.76179C7.54431 14.9031 7.36746 14.7261 7.36746 14.5087V11.7484C7.36746 11.6394 7.45574 11.5513 7.56463 11.5513H7.68015L7.1703 11.0414L6.66044 11.5513Z" fill="white"/>
<path d="M7.10734 25.5595H9.53465C10.9418 25.5595 10.9438 23.3672 9.53465 23.3672H7.10734C5.70029 23.3672 5.69821 25.5595 7.10734 25.5595ZM7.10734 24.1875H9.53465C9.89121 24.1875 9.89121 24.7392 9.53465 24.7392H7.10734C6.75083 24.7392 6.75083 24.1875 7.10734 24.1875Z" fill="#060606"/>
<rect x="0.618652" y="3.93457" width="15.0448" height="0.626866" fill="black"/>
<mask id="path-7-inside-1_17503_5170" fill="white">
<rect x="0.618652" y="0.382324" width="15.6716" height="28" rx="3"/>
</mask>
<rect x="0.618652" y="0.382324" width="15.6716" height="28" rx="3" fill="black" stroke="black" stroke-width="8" mask="url(#path-7-inside-1_17503_5170)"/>
<rect x="1.24561" y="1.42725" width="14.4179" height="25.9104" rx="3" fill="#6BED0E"/>
<path d="M7.10734 25.5595H9.53465C10.9418 25.5595 10.9438 23.3672 9.53465 23.3672H7.10734C5.70029 23.3672 5.69821 25.5595 7.10734 25.5595ZM7.10734 24.1875H9.53465C9.89121 24.1875 9.89121 24.7392 9.53465 24.7392H7.10734C6.75083 24.7392 6.75083 24.1875 7.10734 24.1875Z" fill="#060606"/>
<circle cx="8.14105" cy="13.5463" r="3.99163" fill="black" stroke="black" stroke-width="3"/>
<path d="M8.19061 18.182C10.7235 18.182 12.7767 16.1287 12.7767 13.5959C12.7767 11.063 10.7235 9.00977 8.19061 9.00977C5.65777 9.00977 3.60449 11.063 3.60449 13.5959C3.60449 16.1287 5.65777 18.182 8.19061 18.182Z" fill="#D0EE7F"/>
<path d="M8.19071 9.00977C7.75728 9.00977 7.33842 9.07119 6.94092 9.18355C8.86604 9.72784 10.2772 11.4965 10.2772 13.5958C10.2772 15.6952 8.86604 17.4638 6.94092 18.0081C7.33842 18.1205 7.75728 18.1819 8.19071 18.1819C10.7235 18.1819 12.7768 16.1286 12.7768 13.5958C12.7768 11.0629 10.7235 9.00977 8.19071 9.00977Z" fill="#AEE617"/>
<path d="M8.7187 14.7874H9.22929V12.2345H8.20812L7.52734 11.5537H9.39948C9.68103 11.5537 9.91006 11.7827 9.91006 12.0643V14.7874H10.4206L9.56968 15.6384L8.7187 14.7874Z" fill="#009FFF"/>
<path d="M6.67644 15.6384C6.39489 15.6384 6.16586 15.4093 6.16586 15.1278V12.4047H5.65527L6.50624 11.5537L7.35722 12.4047H6.84663V14.9576H7.8678L8.5401 15.6297L8.5519 15.6384H6.67644Z" fill="#009FFF"/>
<path d="M9.56953 15.6382L9.4492 15.7585L9.56953 15.6382Z" fill="#009FFF" stroke="black"/>
</svg>
