<svg width="29" height="29" viewBox="0 0 29 29" fill="none" xmlns="http://www.w3.org/2000/svg">
<path d="M0.70166 13.3848L13.5042 28.3997L26.3068 13.3848L0.70166 13.3848Z" fill="#28DF17"/>
<path d="M26.3064 13.3848L13.5038 28.3999L12.9111 27.7049L25.0128 13.3848H26.3064Z" fill="#27F713"/>
<path d="M8.78125 13.3848L13.5042 28.3997L18.2273 13.3848L8.78125 13.3848Z" fill="#0CE140"/>
<path d="M23.0484 7.81055L3.96001 7.81055L0.70166 13.3851L26.3068 13.3851L23.0484 7.81055Z" fill="#0CE140"/>
<path d="M13.5042 7.81055L8.78125 13.3851H13.5042L18.2273 13.3851L13.5042 7.81055Z" fill="#17B208"/>
<path d="M3.96002 7.81055L8.78122 13.3851L0.70166 13.3851L3.96002 7.81055Z" fill="#17B208"/>
<path d="M23.0482 7.81055L18.2271 13.3851L26.3066 13.3851L23.0482 7.81055Z" fill="#17B208"/>
<path d="M26.3064 13.3851H25.0125L22.2764 8.70315L23.0484 7.81055L26.3064 13.3851Z" fill="#0ABC2D"/>
<path d="M21.4169 0.994078C21.1452 1.61938 20.669 2.42034 19.8711 3.00522C19.6829 3.14319 19.6829 3.42864 19.8711 3.56661C20.669 4.15155 21.1452 4.95251 21.4169 5.57776C21.5391 5.85898 21.9389 5.85898 22.0611 5.57776C22.3328 4.95245 22.809 4.15149 23.6069 3.56661C23.795 3.42864 23.795 3.14319 23.6069 3.00522C22.809 2.42029 22.3328 1.61932 22.0611 0.994078C21.9388 0.712912 21.5391 0.712912 21.4169 0.994078Z" fill="#1CDC0A"/>
<path d="M26.4231 4.80516C26.196 5.3278 25.798 5.99719 25.1311 6.48609C24.9739 6.60139 24.9739 6.83997 25.1311 6.95527C25.798 7.44417 26.196 8.11356 26.4231 8.6362C26.5252 8.87121 26.8594 8.87121 26.9615 8.6362C27.1886 8.11356 27.5867 7.44417 28.2535 6.95527C28.4108 6.83997 28.4108 6.60139 28.2535 6.48609C27.5867 5.99719 27.1886 5.3278 26.9615 4.80516C26.8594 4.57015 26.5253 4.57015 26.4231 4.80516Z" fill="#1CDC0A"/>
<path d="M23.6071 3.56681C22.8094 4.15135 22.3328 4.95226 22.0611 5.57751C21.939 5.85906 21.5391 5.85906 21.4171 5.57751C21.3394 5.39918 21.2455 5.20726 21.1323 5.00966C21.4165 4.51375 21.5434 3.98505 22.1138 3.56681C22.3021 3.42862 22.3021 3.14339 22.1138 3.0052C21.5434 2.58645 21.4165 2.05775 21.1323 1.56184C21.2455 1.36419 21.3393 1.17233 21.4171 0.993994C21.5391 0.712939 21.939 0.712939 22.0611 0.993994C22.3327 1.61919 22.8094 2.42015 23.6071 3.0052C23.7954 3.14339 23.7954 3.42862 23.6071 3.56681Z" fill="#0F7005"/>
<path d="M28.2536 6.9542C27.5867 7.44332 27.1883 8.11283 26.9615 8.63535C26.8592 8.87053 26.525 8.87053 26.4228 8.63535C26.3373 8.4372 26.2267 8.21823 26.0859 7.99608C26.3154 7.63156 26.4275 7.25825 26.8415 6.9542C26.9985 6.83895 26.9985 6.60066 26.8415 6.48491C26.4275 6.18141 26.3154 5.80805 26.0859 5.44359C26.2267 5.22094 26.3373 5.00247 26.4228 4.80431C26.525 4.56914 26.8592 4.56914 26.9615 4.80431C27.1883 5.32678 27.5867 5.99635 28.2536 6.48491C28.4106 6.60066 28.4106 6.83895 28.2536 6.9542Z" fill="#0F7005"/>
<path d="M23.4083 7.60006C23.3349 7.47445 23.1897 7.39355 23.0484 7.39355C23.0451 7.39355 3.95998 7.39355 3.95998 7.39355C3.95865 7.39355 3.95742 7.39378 3.95608 7.39383C3.81506 7.39528 3.67553 7.47484 3.60276 7.59583C3.60237 7.5965 3.60182 7.59711 3.60143 7.59778L2.47899 9.49C2.36151 9.68798 2.42682 9.9437 2.62481 10.0611C2.82296 10.1786 3.07857 10.1133 3.19599 9.91531L4.02323 8.52084L7.86953 12.9682L1.42815 12.9682L2.24571 11.5695C2.3619 11.3707 2.29492 11.1154 2.09616 10.9992C1.8975 10.883 1.64212 10.95 1.52592 11.1487C1.51 11.176 0.981683 12.0798 0.733477 12.5044C0.623461 12.6927 0.513444 12.8809 0.403427 13.0691C0.295304 13.2541 0.221254 13.4535 0.378261 13.6471C0.380489 13.6498 0.382159 13.6528 0.384442 13.6555C0.384442 13.6555 13.1713 28.652 13.187 28.6704C13.3458 28.8567 13.6607 28.8588 13.8213 28.6704L19.3583 22.1765L19.5367 21.9739C19.6889 21.8011 19.6722 21.5377 19.4994 21.3855C19.3266 21.2334 19.0633 21.2502 18.9111 21.4229L18.7306 21.628C18.7291 21.6296 18.7276 21.6313 18.7262 21.633L14.5168 26.5699L18.533 13.8019L25.4035 13.8019L20.1472 19.9664C19.9979 20.1416 20.0188 20.4047 20.194 20.5541C20.3691 20.7034 20.6322 20.6825 20.7816 20.5074L26.6239 13.6555C26.6255 13.6536 26.6268 13.6514 26.6284 13.6494C26.6759 13.5914 26.7061 13.5264 26.7188 13.4591C26.7366 13.3646 26.7196 13.2655 26.6666 13.1747C26.665 13.1719 23.4083 7.60006 23.4083 7.60006ZM4.87163 8.22725L12.6047 8.22725L8.778 12.744L4.87163 8.22725ZM13.5042 8.45525L17.3277 12.9681H9.68079L13.5042 8.45525ZM1.60487 13.8019L8.47534 13.8019L12.4916 26.5699L1.60487 13.8019ZM13.5042 27.0107L9.34929 13.8019L17.6591 13.8019L13.5042 27.0107ZM18.2305 12.744L14.4037 8.22725L22.1368 8.22725L18.2305 12.744ZM19.1389 12.9681L22.9826 8.52373L25.5803 12.9681L19.1389 12.9681Z" fill="black"/>
<path d="M19.6246 3.90267C20.3643 4.44501 20.7996 5.20316 21.0345 5.74377C21.1564 6.02416 21.4328 6.20539 21.7389 6.20539C22.0449 6.20539 22.3214 6.02416 22.4433 5.74377C22.6782 5.20321 23.1134 4.44501 23.8533 3.90267C24.0483 3.75963 24.1648 3.52902 24.1648 3.28583C24.1648 3.04258 24.0483 2.81196 23.8533 2.66893C23.1135 2.12659 22.6782 1.36839 22.4432 0.827824C22.3214 0.547438 22.0449 0.366211 21.7389 0.366211C21.4328 0.366211 21.1563 0.547438 21.0345 0.827824C20.7996 1.36833 20.3643 2.12659 19.6245 2.66893C19.4294 2.81196 19.313 3.04258 19.313 3.28583C19.313 3.52902 19.4295 3.75963 19.6246 3.90267ZM21.7389 1.29423C22.0184 1.8977 22.5012 2.68447 23.2863 3.28572C22.5011 3.88702 22.0184 4.67378 21.7389 5.27721C21.4594 4.67373 20.9766 3.88697 20.1916 3.28572C20.9767 2.68441 21.4594 1.89776 21.7389 1.29423Z" fill="black"/>
<path d="M28.4997 6.14973C27.8938 5.70555 27.5365 5.08292 27.3436 4.63884C27.2309 4.3795 26.9752 4.21191 26.6921 4.21191C26.6921 4.21191 26.6921 4.21191 26.6921 4.21191C26.4091 4.21191 26.1533 4.3795 26.0406 4.63884C25.8476 5.08292 25.4905 5.70555 24.8844 6.14979C24.7039 6.28219 24.5962 6.49554 24.5962 6.72053C24.5962 6.94552 24.704 7.15887 24.8845 7.29127C25.4905 7.73545 25.8477 8.35808 26.0407 8.8021C26.1534 9.0615 26.4091 9.22909 26.6922 9.22903C26.9752 9.22903 27.2309 9.06145 27.3436 8.8021C27.5366 8.35808 27.8938 7.73545 28.4998 7.29121C28.6803 7.15881 28.7881 6.94546 28.7881 6.72053C28.7881 6.49554 28.6803 6.28213 28.4997 6.14973ZM26.6921 8.2268C26.4573 7.75438 26.0825 7.18069 25.5097 6.72047C26.0825 6.26025 26.4573 5.68656 26.6921 5.21415C26.9269 5.68662 27.3017 6.26025 27.8745 6.72053C27.3016 7.18075 26.9269 7.75438 26.6921 8.2268Z" fill="black"/>
</svg>
