<svg width="23" height="23" viewBox="0 0 23 23" fill="none" xmlns="http://www.w3.org/2000/svg">
<g clip-path="url(#clip0_17503_5213)">
<path d="M2.6244 21.4009H2.06982C1.73005 21.4009 1.45459 21.1255 1.45459 20.7857V20.2311C1.45459 18.7469 1.83353 17.2752 2.5504 15.975C3.26473 14.6795 4.30271 13.5752 5.55217 12.7815C5.7954 12.627 6.11335 12.662 6.31707 12.8658L9.98969 16.5385C10.1935 16.7422 10.2285 17.0601 10.074 17.3034C9.28025 18.5528 8.17594 19.5908 6.88046 20.3051C5.58031 21.022 4.10859 21.4009 2.6244 21.4009Z" fill="#FFE137"/>
<path d="M2.06982 21.401H2.62439C4.10858 21.401 5.5803 21.022 6.8805 20.3051C8.17598 19.5908 9.28028 18.5528 10.074 17.3034C10.2286 17.0601 10.1935 16.7422 9.98973 16.5385L8.15342 14.7021L1.63477 21.2207C1.74612 21.3321 1.89993 21.401 2.06982 21.401Z" fill="#FFC808"/>
<path d="M14.6793 20.3927C14.6465 20.3927 14.6135 20.3901 14.5807 20.3848C14.3855 20.3531 14.2174 20.2295 14.129 20.0526L12.3204 16.4355C12.187 16.1689 12.2641 15.845 12.5032 15.6669L17.8486 11.6867C18.0283 11.5529 18.2665 11.5274 18.4705 11.6201C18.6746 11.7128 18.812 11.909 18.8294 12.1324C19.03 14.7058 18.0987 17.228 16.2743 19.0524L15.1142 20.2125C14.998 20.3288 14.841 20.3927 14.6793 20.3927Z" fill="#48FB21"/>
<path d="M6.69491 10.6004C6.60193 10.6004 6.50792 10.5793 6.42007 10.5354L2.80298 8.72681C2.62608 8.63838 2.5025 8.47029 2.47084 8.27506C2.43917 8.07987 2.50324 7.88131 2.6431 7.74149L3.80323 6.5814C5.62761 4.75698 8.15007 3.82593 10.7233 4.02629C10.9466 4.04372 11.1429 4.18117 11.2356 4.38518C11.3283 4.58919 11.3027 4.82741 11.1689 5.0071L7.1887 10.3525C7.06931 10.5129 6.88428 10.6004 6.69491 10.6004Z" fill="#21FB2D"/>
<path d="M21.7029 7.14755C20.1329 7.06207 18.6597 6.40644 17.5546 5.30139C16.4496 4.19635 15.7939 2.72311 15.7085 1.15312L15.6973 0.948242C13.6648 1.55716 11.7824 2.66278 10.2384 4.20681L10.2079 4.23733C7.8201 6.62517 6.00811 9.43913 4.82239 12.6011C4.73769 12.827 4.79281 13.0816 4.9634 13.2521L9.60378 17.8925C9.72125 18.01 9.87859 18.0728 10.0389 18.0728C10.1114 18.0728 10.1845 18.0599 10.2548 18.0336C13.4168 16.8479 16.2307 15.0359 18.6186 12.648L18.6492 12.6174C20.1932 11.0734 21.2987 9.19119 21.9076 7.1587L21.7029 7.14755Z" fill="#0D540B"/>
<path d="M9.6039 17.8924C9.72137 18.0099 9.87871 18.0726 10.039 18.0726C10.1115 18.0726 10.1846 18.0598 10.2549 18.0335C13.4169 16.8477 16.2308 15.0358 18.6187 12.6479L18.6494 12.6173C20.1933 11.0733 21.2989 9.19107 21.9078 7.15858L21.7029 7.14742C20.133 7.06195 18.6597 6.40631 17.5547 5.30127L7.28369 15.5722L9.6039 17.8924Z" fill="#0D540B"/>
<path d="M22.2449 1.1057C22.1991 0.853615 22.0018 0.656289 21.7497 0.610474C19.5535 0.211105 17.3274 0.389892 15.272 1.08334L15.2981 1.56286C15.3836 3.13281 16.0392 4.60605 17.1443 5.71114C18.2493 6.81614 19.7225 7.47181 21.2925 7.55729L21.772 7.58342C22.4655 5.52804 22.6442 3.30192 22.2449 1.1057Z" fill="#21FB2D"/>
<path d="M17.1445 5.71117C18.2496 6.81617 19.7228 7.47184 21.2928 7.55732L21.7723 7.58345C22.4658 5.52807 22.6445 3.30199 22.2452 1.10573C22.2223 0.979687 22.1615 0.867305 22.0749 0.780762L17.1445 5.71117Z" fill="#48FB21"/>
<path d="M14.3892 11.1323C13.6771 11.1323 13.0075 10.855 12.504 10.3515C12.0005 9.84796 11.7231 9.17842 11.7231 8.46631C11.7231 7.7542 12.0005 7.08466 12.504 6.58115C13.0075 6.0776 13.6771 5.80029 14.3892 5.80029C15.1013 5.80029 15.7709 6.0776 16.2744 6.58115C16.7779 7.08466 17.0552 7.7542 17.0552 8.46631C17.0552 9.17842 16.7779 9.84796 16.2744 10.3515C15.7708 10.855 15.1013 11.1323 14.3892 11.1323Z" fill="#21FB2D"/>
<path d="M5.97849 17.4924C5.82104 17.4924 5.66358 17.4323 5.54348 17.3122C5.30321 17.0719 5.30321 16.6824 5.54348 16.4421L10.7639 11.2217C11.0041 10.9814 11.3937 10.9814 11.6339 11.2217C11.8742 11.4619 11.8742 11.8515 11.6339 12.0917L6.41351 17.3122C6.29337 17.4323 6.13591 17.4924 5.97849 17.4924Z" fill="#21FB2D"/>
<path d="M12.5039 10.3519C13.0074 10.8554 13.677 11.1327 14.3891 11.1327C15.1012 11.1327 15.7707 10.8554 16.2742 10.3519C16.7778 9.84836 17.0551 9.17882 17.0551 8.4667C17.0551 7.75459 16.7778 7.08505 16.2742 6.58154L12.5039 10.3519Z" fill="#48FB21"/>
<path d="M5.54346 17.3127C5.66359 17.4328 5.82105 17.4929 5.97847 17.4929C6.13589 17.4929 6.29339 17.4328 6.41348 17.3127L11.6339 12.0922C11.8742 11.852 11.8742 11.4624 11.6339 11.2222C11.6339 11.2222 11.6339 11.2222 11.6339 11.2222L5.54346 17.3127Z" fill="#48FB21"/>
<path d="M4.99714 12.3565C4.69265 12.9655 4.99714 13.2934 4.99714 13.2934C2.15707 15.1087 0.267344 20.8417 1.83551 21.4636C5.14636 22.7765 9.59388 17.9487 9.59388 17.9487C9.73394 18.0456 10.0933 18.0807 10.5015 17.9487L12.6389 16.9825C12.9024 17.5583 13.5406 18.9149 13.9857 19.7347C14.542 20.7595 15.1568 20.1153 15.1861 20.1153C19.0801 17.5388 18.8459 12.3565 18.8752 12.3565C22.8278 8.19899 22.4702 2.30413 22.4702 1.36663C22.4702 0.76782 21.9202 0.61579 21.9202 0.61579C14.1733 -0.695862 10.5015 4.0414 10.5015 4.0414C6.02189 4.01212 3.24041 7.14495 2.68415 7.70125C2.23914 8.14628 2.49873 8.51128 2.68415 8.63816L5.87552 10.2777C5.70959 10.7169 5.30163 11.7475 4.99714 12.3565Z" stroke="black" stroke-width="0.5"/>
<path d="M14.3892 9.90185C14.0057 9.90185 13.6453 9.75256 13.3741 9.4814C13.103 9.21029 12.9536 8.84976 12.9536 8.46631C12.9536 8.08285 13.103 7.72237 13.3741 7.45121C13.6452 7.18006 14.0057 7.03076 14.3892 7.03076C14.7727 7.03076 15.1331 7.18006 15.4043 7.45121C15.6755 7.72233 15.8247 8.08285 15.8247 8.46631C15.8247 8.84976 15.6755 9.21025 15.4043 9.4814C15.1331 9.75256 14.7726 9.90185 14.3892 9.90185Z" fill="#84D6FF"/>
<path d="M13.374 9.48185C13.6451 9.75301 14.0057 9.90231 14.3891 9.90231C14.7726 9.90231 15.1331 9.75301 15.4042 9.48185C15.6754 9.21074 15.8247 8.85021 15.8247 8.46676C15.8247 8.0833 15.6754 7.72281 15.4042 7.45166L13.374 9.48185Z" fill="#37C3FF"/>
</g>
<defs>
<clipPath id="clip0_17503_5213">
<rect width="21" height="21" fill="white" transform="translate(1.45459 0.382324)"/>
</clipPath>
</defs>
</svg>
