<svg width="33" height="33" viewBox="0 0 33 33" fill="none" xmlns="http://www.w3.org/2000/svg">
<path d="M26.9448 14.6828L26.4688 15.1462C26.4746 15.2328 26.4794 15.3193 26.4824 15.4054C26.4876 15.5329 26.4903 15.6606 26.4903 15.7892C26.4903 16.1939 26.4657 16.5934 26.4177 16.986C26.3609 17.4576 26.27 17.9196 26.1479 18.3688C25.9722 19.018 25.731 19.6418 25.432 20.2322C23.7505 23.5582 20.2398 25.8482 16.1791 25.8569L14.9762 27.1022C14.8569 27.2263 14.6784 27.2736 14.5128 27.226L11.2883 26.2944C11.1231 26.2467 10.9982 26.1113 10.9626 25.9426L10.6183 24.2898C9.89053 23.8384 9.2248 23.3012 8.63606 22.6923C8.09053 22.1283 7.61056 21.5034 7.20982 20.8284C6.94704 20.3874 6.71842 19.9254 6.5265 19.4456C6.32331 18.9371 6.16076 18.4095 6.04397 17.8653C5.89969 17.1957 5.82422 16.5007 5.82422 15.7892C5.82422 15.2925 5.86093 14.8049 5.93213 14.328C6.09075 13.2649 6.41995 12.2561 6.89155 11.3276C7.46201 10.2048 8.2413 9.20082 9.18023 8.36331C11.0178 6.72244 13.4677 5.72135 16.1573 5.72135C16.5838 5.72135 17.0038 5.7468 17.416 5.7958C18.0612 5.87229 18.6875 6.00684 19.2903 6.19313L20.1199 5.60559C20.2606 5.50639 20.4447 5.4929 20.5982 5.57059L22.0763 6.3176C22.2303 6.39546 22.3287 6.55152 22.3316 6.72329L22.3509 7.72984C23.9052 8.86598 25.1199 10.4189 25.8206 12.2184L26.2463 12.3055C26.415 12.34 26.5511 12.4646 26.5996 12.6297L27.0659 14.219C27.1149 14.3847 27.0681 14.5631 26.9448 14.6828Z" fill="#73FF9A"/>
<path d="M26.9448 14.6834L26.4688 15.1468C26.4746 15.2334 26.4794 15.32 26.4825 15.406C26.4876 15.5336 26.4903 15.6613 26.4903 15.7899C26.4903 16.1945 26.4657 16.5941 26.4178 16.9866C26.3609 17.4582 26.2701 17.9202 26.148 18.3695C25.9723 19.0187 25.731 19.6424 25.432 20.2328C23.7505 23.5588 20.2398 25.8488 16.1791 25.8575L14.9762 27.1028C14.8569 27.2269 14.6785 27.2742 14.5128 27.2266L11.2883 26.295C11.1232 26.2474 10.9982 26.112 10.9627 25.9433L10.6992 24.6782C11.5051 24.8469 12.3409 24.9357 13.1972 24.9357C19.9031 24.9357 25.3393 19.499 25.3393 12.7931C25.3393 12.1504 25.2896 11.5197 25.1933 10.9043C25.4334 11.3252 25.6432 11.764 25.8207 12.219L26.2463 12.3061C26.415 12.3406 26.5511 12.4653 26.5996 12.6304L27.0659 14.2197C27.1149 14.3853 27.0681 14.5637 26.9448 14.6834Z" fill="#3CFF5B"/>
<path d="M10.6847 12.8278C10.6847 13.2422 10.5168 13.6172 10.2453 13.8887C9.97403 14.1601 9.5989 14.328 9.1845 14.328H5.93213C6.09075 13.2649 6.41995 12.2562 6.89155 11.3276H9.1845C10.0133 11.3276 10.6847 11.9995 10.6847 12.8278Z" fill="#3CFF5B"/>
<path d="M17.4166 5.79595C16.5933 6.49909 14.9713 7.25942 13.0276 7.78685C11.5795 8.17957 10.2207 8.37046 9.18066 8.36346C11.0186 6.72259 13.4684 5.72168 16.1577 5.72168C16.5844 5.72168 17.0044 5.74678 17.4166 5.79595Z" fill="#218D00"/>
<path d="M26.4903 15.7895C26.4903 16.1942 26.4657 16.5937 26.4177 16.9863C26.3608 17.4579 26.27 17.9199 26.1479 18.3691H23.6735C23.635 18.3683 23.597 18.3679 23.5586 18.3679C22.4453 18.3679 21.3757 18.8093 20.5867 19.5978C19.7991 20.386 18.7304 20.8287 17.6157 20.8287H7.2098C6.94702 20.3877 6.71839 19.9257 6.52647 19.4459C6.32329 18.9374 6.16074 18.4098 6.04395 17.8656H17.6157C18.7304 17.8656 19.7991 17.4225 20.5867 16.6344C21.3757 15.8458 22.4453 15.4043 23.5586 15.4043C23.597 15.4043 23.635 15.4048 23.6735 15.4057H26.4824C26.4875 15.5332 26.4903 15.6609 26.4903 15.7895Z" fill="#DE0000"/>
<path d="M26.4905 15.7896C26.4905 16.1943 26.4659 16.5938 26.4179 16.9864C26.3611 17.458 26.2703 17.92 26.1482 18.3692H23.9858C24.4655 17.4445 24.8286 16.4504 25.0576 15.4058H26.4827C26.4878 15.5333 26.4905 15.661 26.4905 15.7896Z" fill="#FF7373"/>
<path d="M26.4181 16.9867C26.2782 18.1401 25.9381 19.2334 25.4324 20.2329H23.6738C23.3544 20.2242 23.0383 20.2522 22.7303 20.3144C21.9251 20.4761 21.1777 20.8717 20.5871 21.4621C20.1929 21.8564 19.7291 22.1641 19.2242 22.3731C18.719 22.5824 18.1734 22.693 17.6161 22.693H8.63642C7.7342 21.7606 7.01297 20.6605 6.52686 19.4463H17.6161C18.7308 19.4463 19.7995 19.0034 20.5871 18.2154C21.3761 17.4269 22.4457 16.9854 23.5589 16.9854C23.5974 16.9854 23.6354 16.9859 23.6738 16.9867H26.4181Z" fill="#3CFF5B"/>
<path d="M26.4178 16.9863C26.2779 18.1397 25.9378 19.233 25.432 20.2326H23.6735C23.3541 20.2238 23.038 20.2518 22.73 20.314C23.5163 19.3191 24.1501 18.1979 24.5954 16.9863H26.4178Z" fill="#04FF4A"/>
<path d="M15.7965 14.4817C15.7965 15.3148 15.1211 15.9902 14.2878 15.9902C13.4548 15.9902 12.7793 15.3148 12.7793 14.4817C12.7793 13.6484 13.4548 12.9731 14.2878 12.9731C15.1211 12.9731 15.7965 13.6484 15.7965 14.4817Z" fill="#04FF4A"/>
<path d="M15.7963 14.4812C15.7963 15.3146 15.121 15.9901 14.2879 15.9901C14.1318 15.9901 13.9814 15.9663 13.8398 15.9223C14.454 15.7312 14.8998 15.1582 14.8998 14.4812C14.8998 13.804 14.454 13.2315 13.8398 13.0404C13.9814 12.9964 14.1318 12.9727 14.2879 12.9727C15.121 12.9727 15.7963 13.648 15.7963 14.4812Z" fill="#DD0000"/>
<path d="M13.3915 10.735C13.3915 11.2599 12.966 11.6854 12.4411 11.6854C11.9162 11.6854 11.4907 11.2599 11.4907 10.735C11.4907 10.2102 11.9162 9.78467 12.4411 9.78467C12.966 9.78467 13.3915 10.2102 13.3915 10.735Z" fill="#04FF4A"/>
<path d="M13.3912 10.7349C13.3912 11.2599 12.9655 11.6852 12.441 11.6852C12.3177 11.6852 12.1997 11.6615 12.0913 11.6183C12.4432 11.4793 12.6918 11.1361 12.6918 10.7349C12.6918 10.3336 12.4432 9.99059 12.0913 9.8516C12.1997 9.80823 12.3177 9.78467 12.441 9.78467C12.9655 9.78467 13.3912 10.21 13.3912 10.7349Z" fill="#DD0000"/>
<path d="M17.0886 22.6924C17.0886 23.0327 16.8126 23.3086 16.4723 23.3086C16.1319 23.3086 15.856 23.0327 15.856 22.6924C15.856 22.3519 16.1319 22.0762 16.4723 22.0762C16.8126 22.0762 17.0886 22.3519 17.0886 22.6924Z" fill="#04FF4A"/>
<path d="M21.614 10.4011C21.614 10.7414 21.338 11.0173 20.9976 11.0173C20.6573 11.0173 20.3813 10.7414 20.3813 10.4011C20.3813 10.0606 20.6573 9.78467 20.9976 9.78467C21.338 9.78467 21.614 10.0606 21.614 10.4011Z" fill="#04FF4A"/>
<path d="M17.0851 8.01194H17.0895H17.0911C17.2714 8.01194 17.418 7.86629 17.4189 7.68564C17.4198 7.50465 17.2738 7.35713 17.0926 7.35645H17.0882C17.0875 7.35645 17.0871 7.35645 17.0865 7.35645C16.9061 7.35645 16.7596 7.50209 16.7588 7.68274C16.7578 7.86373 16.9039 8.01126 17.0851 8.01194Z" fill="black"/>
<path d="M27.3809 14.127L26.9143 12.5375C26.8315 12.2551 26.6008 12.043 26.3122 11.9843L26.0599 11.9327C25.3532 10.208 24.1877 8.70308 22.6755 7.56284L22.6598 6.71764C22.6542 6.42328 22.4877 6.15794 22.2248 6.0251L20.7464 5.27791C20.4835 5.14507 20.1712 5.16829 19.931 5.33836L19.2319 5.83335C18.2372 5.54172 17.2038 5.39402 16.1573 5.39402C13.9794 5.39402 11.8849 6.03022 10.1001 7.23381C8.35524 8.41042 7.02137 10.0451 6.24277 11.9609C6.17447 12.1288 6.25523 12.32 6.4229 12.3881C6.59075 12.4562 6.78198 12.3755 6.85011 12.2078C6.92609 12.0208 7.00822 11.8368 7.0953 11.6556H9.18472C9.83116 11.6556 10.3571 12.1815 10.3571 12.828C10.3571 13.1411 10.2351 13.4356 10.0137 13.6569C9.7924 13.8784 9.49804 14.0003 9.18472 14.0003H6.32131C6.3476 13.8622 6.37595 13.7244 6.40839 13.5878C6.45022 13.4116 6.34129 13.2348 6.16525 13.193C5.98921 13.1514 5.81232 13.2601 5.77048 13.4363C5.58847 14.2035 5.49609 14.9952 5.49609 15.7895C5.49609 17.4641 5.89222 19.0631 6.67373 20.5424C6.73247 20.6538 6.84618 20.7173 6.96383 20.7173C7.01556 20.7173 7.06781 20.705 7.11664 20.6792C7.2768 20.5947 7.33793 20.3963 7.25341 20.2361C7.17282 20.0835 7.09718 19.9291 7.02529 19.7736H17.616C18.8261 19.7736 19.9634 19.3023 20.8187 18.4467C21.5399 17.726 22.5386 17.3126 23.5586 17.3126C23.5947 17.3126 23.63 17.3129 23.666 17.3138C23.6686 17.314 23.6713 17.314 23.6739 17.314H26.0408C25.8958 18.2174 25.6228 19.088 25.2319 19.9047H23.6783C22.4414 19.8733 21.2295 20.3555 20.3551 21.2299C19.9933 21.5917 19.5705 21.8742 19.0986 22.0696C18.6261 22.2651 18.1274 22.3643 17.6162 22.3643H17.3578C17.2243 22.0049 16.8778 21.7481 16.4725 21.7481C16.0671 21.7481 15.7207 22.0049 15.5872 22.3643H8.77647C8.55296 22.1263 8.34038 21.8775 8.14044 21.6171C8.03013 21.4735 7.82439 21.4465 7.68062 21.557C7.53719 21.6673 7.51021 21.8731 7.62052 22.0167C8.37146 22.9938 9.28102 23.8264 10.3258 24.493L10.6419 26.0097C10.702 26.2981 10.9151 26.5279 11.1978 26.6095L14.4224 27.541C14.4953 27.5621 14.5695 27.5724 14.6431 27.5724C14.8549 27.5724 15.0608 27.4874 15.2126 27.3301L16.3197 26.1835C18.118 26.1569 19.8852 25.6868 21.4398 24.8205C21.598 24.7324 21.6546 24.5328 21.5665 24.3747C21.4784 24.2165 21.2788 24.1597 21.1205 24.2478C19.6229 25.0826 17.9139 25.5255 16.1786 25.5291C16.09 25.5292 16.0052 25.5654 15.9435 25.6293L14.7408 26.8749C14.7054 26.9114 14.6532 26.9254 14.6044 26.9113L11.3797 25.9797C11.3308 25.9655 11.2941 25.9259 11.2837 25.876L10.9393 24.2229C10.9209 24.1349 10.8672 24.0583 10.7909 24.011C10.3154 23.7163 9.86924 23.3848 9.45416 23.0201H15.5872C15.7207 23.3795 16.067 23.6363 16.4725 23.6363C16.8777 23.6363 17.2241 23.3795 17.3578 23.0201H17.616C18.2138 23.0201 18.7969 22.9042 19.3494 22.6754C19.9012 22.4469 20.3957 22.1165 20.8187 21.6936C21.5676 20.9447 22.6054 20.5317 23.6652 20.5602C23.6681 20.5604 23.671 20.5604 23.6739 20.5604H24.887C24.2449 21.6712 23.3737 22.6628 22.3031 23.4752C22.1589 23.5846 22.1307 23.7902 22.2401 23.9345C22.3047 24.0195 22.4025 24.0641 22.5015 24.0641C22.5705 24.0641 22.6402 24.0424 22.6994 23.9975C23.9527 23.0464 24.9896 21.8138 25.6979 20.433C26.4415 18.9837 26.8185 17.4214 26.8185 15.7895C26.8185 15.6244 26.8139 15.4525 26.805 15.277L27.1735 14.9181C27.3845 14.7127 27.4639 14.4096 27.3809 14.127ZM16.4725 22.9807C16.3134 22.9807 16.1839 22.8513 16.1839 22.6923C16.1839 22.5332 16.3134 22.4037 16.4725 22.4037C16.6315 22.4037 16.7609 22.5332 16.7609 22.6923C16.7609 22.8513 16.6315 22.9807 16.4725 22.9807ZM16.1573 6.04968C16.2637 6.04968 16.3699 6.05173 16.4759 6.05498C15.5874 6.58361 14.3173 7.09704 12.9413 7.47046C11.9682 7.73426 11.0126 7.91201 10.1633 7.99021C10.263 7.91765 10.3641 7.84662 10.4667 7.77746C12.1427 6.64712 14.1106 6.04968 16.1573 6.04968ZM23.6778 16.6583C23.638 16.6574 23.5986 16.6569 23.5586 16.6569C22.3484 16.6569 21.2107 17.1279 20.3551 17.9831C19.6236 18.7149 18.6509 19.1181 17.616 19.1181H6.75108C6.63719 18.8141 6.53952 18.5056 6.45808 18.1931H17.616C18.8261 18.1931 19.9634 17.7219 20.8187 16.8663C21.5399 16.1456 22.5386 15.7322 23.5588 15.7322C23.5947 15.7322 23.6302 15.7325 23.6662 15.7334C23.6688 15.7335 23.6713 15.7335 23.6741 15.7335H26.1625C26.1627 15.7522 26.163 15.7709 26.163 15.7895C26.163 16.0815 26.1495 16.3713 26.1236 16.6583H23.6778ZM26.7161 14.4483L26.2404 14.9116C26.1936 14.9572 26.1625 15.0152 26.149 15.0779H23.6778C23.6379 15.0769 23.5986 15.0765 23.5586 15.0765C22.3484 15.0765 21.2107 15.5474 20.3551 16.4025C19.6236 17.1345 18.6509 17.5375 17.616 17.5375H6.31106C6.2052 16.9665 6.15176 16.3831 6.15176 15.7895C6.15176 15.41 6.17464 15.0313 6.21937 14.656H9.18472C9.67322 14.656 10.1322 14.4658 10.4774 14.1205C10.8227 13.7754 11.0127 13.3163 11.0127 12.828C11.0127 11.82 10.1926 11 9.18472 11H7.4426C7.93981 10.1426 8.56662 9.36523 9.30527 8.69078C10.3953 8.68225 11.7406 8.4753 13.1129 8.10308C14.967 7.60006 16.5954 6.87183 17.5151 6.13881C18.0845 6.21411 18.6456 6.33705 19.1937 6.50677C19.291 6.53682 19.3967 6.52009 19.48 6.46101L20.3098 5.87347C20.3513 5.84411 20.4053 5.84001 20.4507 5.86306L21.929 6.61024C21.9744 6.63312 22.0031 6.67905 22.0042 6.72994L22.0229 7.73614C22.025 7.83859 22.0747 7.93421 22.1573 7.99465C22.7281 8.41178 23.248 8.88321 23.7104 9.40057C23.2776 11.1507 21.6871 12.405 19.8685 12.405H16.4546C16.2736 12.405 16.1267 12.5519 16.1267 12.7329C16.1267 12.9138 16.2736 13.0607 16.4546 13.0607H19.8685C21.829 13.0607 23.5612 11.8095 24.2097 10.0071C24.7498 10.7189 25.1899 11.5018 25.5155 12.3377C25.556 12.4416 25.6463 12.5177 25.7556 12.5399L26.1811 12.6266C26.231 12.6369 26.2709 12.6734 26.2853 12.7223L26.7519 14.3117C26.7663 14.3604 26.7524 14.4128 26.7161 14.4483Z" fill="black"/>
<path d="M14.2877 12.6445C13.275 12.6445 12.4512 13.4684 12.4512 14.4811C12.4512 15.4936 13.275 16.3174 14.2877 16.3174C15.3002 16.3174 16.1241 15.4936 16.1241 14.4811C16.1241 13.4684 15.3002 12.6445 14.2877 12.6445ZM14.2877 15.6618C13.6365 15.6618 13.1068 15.1321 13.1068 14.4811C13.1068 13.8298 13.6365 13.3002 14.2877 13.3002C14.9388 13.3002 15.4684 13.8298 15.4684 14.4811C15.4684 15.1321 14.9388 15.6618 14.2877 15.6618Z" fill="black"/>
<path d="M13.719 10.7352C13.719 10.0304 13.1456 9.45703 12.4408 9.45703C11.736 9.45703 11.1626 10.0304 11.1626 10.7352C11.1626 11.4401 11.736 12.0134 12.4408 12.0134C13.1456 12.0134 13.719 11.4401 13.719 10.7352ZM12.4408 11.3579C12.0974 11.3579 11.8183 11.0786 11.8183 10.7352C11.8183 10.392 12.0976 10.1127 12.4408 10.1127C12.784 10.1127 13.0633 10.392 13.0633 10.7352C13.0633 11.0786 12.784 11.3579 12.4408 11.3579Z" fill="black"/>
<path d="M20.9978 9.45703C20.4773 9.45703 20.0537 9.88065 20.0537 10.4013C20.0537 10.9217 20.4772 11.3453 20.9978 11.3453C21.5184 11.3453 21.9418 10.9217 21.9418 10.4013C21.9418 9.88065 21.5184 9.45703 20.9978 9.45703ZM20.9978 10.6896C20.8388 10.6896 20.7094 10.5602 20.7094 10.4013C20.7094 10.2421 20.8388 10.1127 20.9978 10.1127C21.1569 10.1127 21.2862 10.2421 21.2862 10.4013C21.2862 10.5602 21.1569 10.6896 20.9978 10.6896Z" fill="black"/>
<path d="M18.9049 13.5879H17.4489C17.2678 13.5879 17.1211 13.7346 17.1211 13.9157C17.1211 14.0967 17.2678 14.2436 17.4489 14.2436H18.9049C19.086 14.2436 19.2327 14.0967 19.2327 13.9157C19.2327 13.7346 19.086 13.5879 18.9049 13.5879Z" fill="black"/>
<path d="M16.5231 8.6918H16.5277H16.5292C16.7095 8.6918 16.856 8.54615 16.8571 8.3655C16.8579 8.18451 16.7118 8.03699 16.5308 8.03613H16.5262C16.5256 8.03613 16.5251 8.03613 16.5246 8.03613C16.3443 8.03613 16.1976 8.18195 16.1968 8.36243C16.1959 8.54359 16.3421 8.69094 16.5231 8.6918Z" fill="black"/>
<path d="M15.0106 24.2287H15.0121C15.1924 24.2287 15.3389 24.0831 15.34 23.9024C15.3408 23.7214 15.1947 23.5739 15.0137 23.5732H15.0091C15.0085 23.5732 15.008 23.5732 15.0075 23.5732C14.8272 23.5732 14.6805 23.7189 14.6797 23.8995C14.6788 24.0805 14.8248 24.2281 15.006 24.2287H15.0106Z" fill="black"/>
<path d="M17.4184 14.5645H17.4138C17.2326 14.5645 17.0859 14.7113 17.0859 14.8923C17.0859 15.0733 17.2326 15.2201 17.4138 15.2201H17.4184C17.5994 15.2201 17.7462 15.0733 17.7462 14.8923C17.7462 14.7113 17.5994 14.5645 17.4184 14.5645Z" fill="black"/>
<path d="M14.6456 25.843C14.2942 25.6526 13.8784 25.4808 13.4434 25.3466C12.8784 25.1721 12.326 25.0721 11.8459 25.0569C11.6644 25.0502 11.5136 25.1933 11.508 25.3743C11.5023 25.5553 11.6444 25.7066 11.8254 25.7122C12.2417 25.7253 12.7476 25.8179 13.2501 25.9731C13.6445 26.0948 14.0191 26.2492 14.3331 26.4194C14.3828 26.4462 14.4363 26.459 14.489 26.459C14.6055 26.459 14.7182 26.3969 14.7776 26.2874C14.8638 26.1281 14.8047 25.9292 14.6456 25.843Z" fill="black"/>
<path d="M21.3938 7.74971C21.5748 7.74971 21.7217 7.60287 21.7217 7.42187C21.7217 7.24071 21.5748 7.09404 21.3938 7.09404C20.8652 7.09404 20.3709 6.71345 20.2394 6.5801C20.1124 6.45118 19.9047 6.44965 19.7758 6.57685C19.6469 6.70389 19.6456 6.91151 19.7726 7.04043C20.0144 7.28562 20.6646 7.74971 21.3938 7.74971Z" fill="black"/>
<path d="M26.0361 13.0607C26.0383 12.8797 25.8933 12.7311 25.7124 12.7291C25.5305 12.7255 25.3828 12.8718 25.3806 13.053C25.3755 13.4824 25.4571 14.0788 25.8756 14.4813C25.9391 14.5424 26.0211 14.5728 26.1028 14.5728C26.1889 14.5728 26.2748 14.5391 26.3392 14.4722C26.4647 14.3418 26.4606 14.1343 26.3301 14.0088C26.0675 13.7561 26.0332 13.3064 26.0361 13.0607Z" fill="black"/>
</svg>
