<svg width="28" height="35" viewBox="0 0 28 35" fill="none" xmlns="http://www.w3.org/2000/svg">
<path d="M18.8093 9.34691L19.941 8.21537C19.1609 7.43522 18.2347 6.81637 17.2154 6.39416C16.1961 5.97195 15.1036 5.75464 14.0003 5.75464C12.897 5.75464 11.8045 5.97195 10.7852 6.39416C9.76589 6.81637 8.83972 7.43522 8.05957 8.21537L9.19111 9.34696L18.8093 9.34691Z" fill="#41F50C"/>
<path d="M9.19087 18.9653L8.05933 20.0969C8.83947 20.877 9.76564 21.4959 10.785 21.9181C11.8043 22.3403 12.8968 22.5576 14 22.5576C15.1033 22.5576 16.1958 22.3403 17.2151 21.9181C18.2345 21.4959 19.1606 20.877 19.9408 20.0969L18.8092 18.9653H9.19087Z" fill="#B97A0A"/>
<path d="M19.9409 8.21533L18.8092 9.34688H9.19091L8.05936 8.21533C7.27922 8.99548 6.66037 9.92165 6.23816 10.941C5.81594 11.9603 5.59863 13.0528 5.59863 14.1561C5.59863 15.2593 5.81594 16.3518 6.23816 17.3711C6.66037 18.3905 7.27922 19.3166 8.05936 20.0968L9.19091 18.9652H18.8092L19.9409 20.0967C21.5165 18.5211 22.4016 16.3842 22.4016 14.156C22.4016 11.9278 21.5165 9.79091 19.9409 8.21533Z" fill="#41F50C"/>
<path d="M14.0001 20.9573C17.7563 20.9573 20.8013 17.9123 20.8013 14.1561C20.8013 10.4 17.7563 7.35498 14.0001 7.35498C10.244 7.35498 7.19897 10.4 7.19897 14.1561C7.19897 17.9123 10.244 20.9573 14.0001 20.9573Z" fill="#3B8686"/>
<path d="M14 20.0968C17.281 20.0968 19.9408 17.437 19.9408 14.1561C19.9408 10.8751 17.281 8.21533 14 8.21533C10.7191 8.21533 8.05933 10.8751 8.05933 14.1561C8.05933 17.437 10.7191 20.0968 14 20.0968Z" fill="#41F50C"/>
<path d="M17.5514 11.8059L13.9999 9.75537L10.4819 11.7865L13.9999 13.9758L17.5514 11.8059Z" fill="#D78E0C"/>
<path d="M10.482 11.7866L10.4485 11.806V15.9069L14 17.9573V13.9759L10.482 11.7866Z" fill="#ECAB2C"/>
<path d="M14 13.9758V17.9573L17.5515 15.9068V11.8059L14 13.9758Z" fill="#B97A0A"/>
<path d="M18.2007 15.2866H9.79924C9.24686 15.2866 8.79907 15.7344 8.79907 16.2868V27.8888C8.79907 28.4412 9.24686 28.889 9.79924 28.889H18.2007C18.7531 28.889 19.2009 28.4412 19.2009 27.8888V16.2868C19.2009 15.7344 18.7531 15.2866 18.2007 15.2866Z" fill="#D6D5D0"/>
<path d="M10.3992 16.8069H17.6004V22.5679H10.3992V16.8069Z" fill="#92D1F7"/>
<path d="M10.3992 25.6885H15.6001V27.2888H10.3992V25.6885Z" fill="#41F50C"/>
<path d="M15.6001 25.6885H17.6004V27.2888H15.6001V25.6885Z" fill="#41F50C"/>
<path d="M14.579 21.2457L13.7813 21.6443L13.5998 21.7388V21.2877H12.7327L13.4153 20.9326C13.4173 20.9316 13.4188 20.9306 13.4208 20.9296L14.2209 20.5296C14.3159 20.4821 14.4258 20.4743 14.5265 20.5078C14.6273 20.5414 14.7105 20.6136 14.758 20.7086C14.8055 20.8036 14.8133 20.9135 14.7797 21.0142C14.7462 21.1149 14.6739 21.1982 14.579 21.2457Z" fill="#ECEBE6"/>
<path d="M14.3999 18.8874H13.1997L11.9995 20.0876V21.2878H13.5998V22.568H16.8295L16.3165 21.0364C16.1105 20.4186 15.7211 19.8783 15.2001 19.4875V18.4873L14.3999 18.8874Z" fill="#ECEBE6"/>
<path d="M16.8295 22.5681L16.2004 22.5576L15.9188 20.7618L15.2002 19.4875C15.7213 19.8781 16.1107 20.4185 16.3164 21.0363L16.8295 22.5681Z" fill="#ECEBE6"/>
<path d="M16.8295 22.5678L16.2004 22.5573L16.1454 22.2068C15.9955 21.251 15.6754 20.3299 15.2002 19.4873C15.7213 19.8779 16.1107 20.4182 16.3164 21.0361L16.8295 22.5678Z" fill="#5292C1"/>
<path d="M20.2235 7.86283C16.7917 4.43114 11.208 4.43114 7.77635 7.86283C6.12577 9.51343 5.19849 11.7521 5.19849 14.0864C5.19849 16.4207 6.12577 18.6594 7.77635 20.31C7.97438 20.5081 8.18362 20.6973 8.39896 20.8754V27.8888C8.39938 28.2601 8.54704 28.616 8.80955 28.8785C9.07205 29.141 9.42796 29.2886 9.7992 29.2891H18.2006C18.5718 29.2886 18.9277 29.141 19.1902 28.8785C19.4527 28.616 19.6004 28.2601 19.6008 27.8888V20.8764L19.6029 20.8749C19.8171 20.6977 20.0259 20.5077 20.2235 20.3101C21.8741 18.6595 22.8014 16.4208 22.8014 14.0865C22.8014 11.7522 21.8741 9.51343 20.2235 7.86283ZM19.9334 19.4545L19.6487 19.1697C19.6338 19.155 19.6177 19.1415 19.6006 19.1292V18.6135C20.6751 17.2839 21.2416 15.6155 21.1987 13.9065C21.1559 12.1976 20.5065 10.5597 19.3667 9.28562L19.9337 8.71863C21.2644 10.1898 22.0012 12.1029 22.0012 14.0866C22.0012 16.0704 21.2642 17.9833 19.9334 19.4545ZM13.9999 13.6437L11.1451 11.9954L13.9999 10.3473L16.8547 11.9954L13.9999 13.6437ZM10.8484 12.7481L13.5998 14.3365V14.8866H10.8484V12.7481ZM14.3999 14.3365L17.1513 12.748V14.8866H14.3999V14.3365ZM17.7514 11.5891L14.1999 9.53877C14.1391 9.50368 14.0701 9.48521 13.9999 9.48521C13.9296 9.48521 13.8607 9.50368 13.7998 9.53877L10.2483 11.5891C10.1875 11.6242 10.137 11.6747 10.1019 11.7356C10.0668 11.7964 10.0483 11.8654 10.0483 11.9356V14.8866H9.79915C9.42791 14.887 9.072 15.0347 8.8095 15.2972C8.54699 15.5597 8.39933 15.9156 8.39891 16.2868V17.1881C7.85972 16.2136 7.58413 15.1153 7.59937 14.0017C7.6146 12.888 7.92013 11.7976 8.48577 10.8382C9.05141 9.87884 9.85758 9.08362 10.8246 8.53116C11.7917 7.9787 12.8861 7.68811 13.9999 7.68811C15.1136 7.68811 16.2081 7.9787 17.1751 8.53116C18.1422 9.08362 18.9483 9.87884 19.514 10.8382C20.0796 11.7976 20.3851 12.888 20.4004 14.0017C20.4156 15.1153 20.14 16.2136 19.6008 17.1881V16.2868C19.6004 15.9156 19.4527 15.5597 19.1902 15.2972C18.9277 15.0347 18.5718 14.887 18.2006 14.8866H17.9514V11.9357C17.9514 11.8655 17.933 11.7965 17.8978 11.7357C17.8627 11.6749 17.8122 11.6242 17.7514 11.5891ZM19.3677 8.15268L18.801 8.71948C17.4797 7.54044 15.7708 6.88882 13.9999 6.88882C12.229 6.88882 10.52 7.54044 9.19869 8.71948L8.63205 8.15283C11.6703 5.40106 16.3294 5.40091 19.3677 8.15268ZM8.06605 8.71843L8.633 9.28562C7.49324 10.5596 6.84386 12.1975 6.80097 13.9064C6.75808 15.6153 7.32449 17.2837 8.39891 18.6132V19.1216L8.06605 19.4545C6.73533 17.9833 5.9985 16.0702 5.9985 14.0864C5.9985 12.1027 6.73533 10.1896 8.06605 8.71843ZM18.8007 27.8888C18.8005 28.0479 18.7372 28.2005 18.6247 28.313C18.5122 28.4255 18.3597 28.4888 18.2006 28.4889H9.79915C9.64004 28.4888 9.4875 28.4255 9.375 28.313C9.2625 28.2005 9.19922 28.0479 9.19904 27.8888V16.2868C9.19922 16.1277 9.2625 15.9752 9.375 15.8627C9.4875 15.7502 9.64004 15.6869 9.79915 15.6867H18.2006C18.3597 15.6869 18.5122 15.7502 18.6247 15.8627C18.7372 15.9752 18.8005 16.1277 18.8007 16.2868V27.8888Z" fill="black"/>
<path d="M17.6006 16.4067H10.3993C10.2932 16.4067 10.1915 16.4489 10.1164 16.5239C10.0414 16.5989 9.99927 16.7007 9.99927 16.8068V22.5678C9.99927 22.6739 10.0414 22.7757 10.1164 22.8507C10.1915 22.9257 10.2932 22.9679 10.3993 22.9679H17.6006C17.7067 22.9679 17.8084 22.9257 17.8835 22.8507C17.9585 22.7757 18.0006 22.6739 18.0006 22.5678V16.8068C18.0006 16.7007 17.9585 16.5989 17.8835 16.5239C17.8084 16.4489 17.7067 16.4067 17.6006 16.4067ZM13.3655 19.2872H14.4C14.4621 19.2872 14.5234 19.2728 14.579 19.245L14.8001 19.1344V19.4873C14.8001 19.5494 14.8146 19.6106 14.8423 19.6662C14.8701 19.7217 14.9104 19.7701 14.9601 19.8073C15.4166 20.1487 15.7575 20.6216 15.937 21.1626L16.2453 22.0877H14V21.5348L14.579 21.2453C14.6264 21.2221 14.6687 21.1897 14.7035 21.15C14.7383 21.1103 14.765 21.0641 14.7819 21.0141C14.7988 20.9641 14.8056 20.9112 14.8019 20.8585C14.7983 20.8058 14.7843 20.7544 14.7606 20.7072C14.737 20.66 14.7043 20.6179 14.6643 20.5834C14.6244 20.5488 14.578 20.5226 14.5278 20.5061C14.4777 20.4896 14.4247 20.4832 14.3721 20.4872C14.3195 20.4913 14.2681 20.5057 14.2211 20.5297L13.5054 20.8875H12.3997V20.253L13.3655 19.2872ZM17.2005 22.1677H17.1155L16.6961 20.9097C16.4873 20.2803 16.1079 19.7211 15.6002 19.2944V18.4871C15.6002 18.4189 15.5828 18.3518 15.5496 18.2923C15.5164 18.2327 15.4685 18.1826 15.4105 18.1468C15.3525 18.1109 15.2863 18.0905 15.2181 18.0874C15.15 18.0844 15.0822 18.0988 15.0212 18.1293L14.3056 18.4871H13.3654L12.6824 17.8041C12.6074 17.7291 12.5056 17.6869 12.3995 17.6869C12.2934 17.6869 12.1917 17.7291 12.1166 17.8041C12.0416 17.8792 11.9995 17.9809 11.9995 18.087C11.9995 18.1931 12.0416 18.2949 12.1166 18.3699L12.634 18.8872L11.7167 19.8045C11.6796 19.8416 11.6501 19.8857 11.63 19.9343C11.6099 19.9828 11.5995 20.0348 11.5995 20.0874V21.2876C11.5995 21.3937 11.6417 21.4954 11.7167 21.5705C11.7917 21.6455 11.8935 21.6876 11.9996 21.6876H13.1998V22.1677H10.7994V17.2069H17.2005V22.1677Z" fill="black"/>
<path d="M17.6006 25.2883H10.3993C10.2932 25.2883 10.1915 25.3305 10.1164 25.4055C10.0414 25.4805 9.99927 25.5823 9.99927 25.6884V27.2887C9.99927 27.3948 10.0414 27.4965 10.1164 27.5716C10.1915 27.6466 10.2932 27.6887 10.3993 27.6887H17.6006C17.7067 27.6887 17.8084 27.6466 17.8835 27.5716C17.9585 27.4965 18.0006 27.3948 18.0006 27.2887V25.6884C18.0006 25.5823 17.9585 25.4805 17.8835 25.4055C17.8084 25.3305 17.7067 25.2883 17.6006 25.2883ZM10.7994 26.0885H15.2002V26.8886H10.7994V26.0885ZM17.2005 26.8886H16.0003V26.0885H17.2005V26.8886Z" fill="black"/>
<path d="M13.0996 24.4881C13.2057 24.4881 13.3075 24.446 13.3825 24.3709C13.4575 24.2959 13.4997 24.1942 13.4997 24.0881C13.4997 23.982 13.4575 23.8802 13.3825 23.8052C13.3075 23.7301 13.2057 23.688 13.0996 23.688H11.9994C11.8933 23.688 11.7916 23.7301 11.7165 23.8052C11.6415 23.8802 11.5994 23.982 11.5994 24.0881C11.5994 24.1942 11.6415 24.2959 11.7165 24.3709C11.7916 24.446 11.8933 24.4881 11.9994 24.4881H13.0996Z" fill="black"/>
<path d="M17.6005 23.688H14.8C14.6939 23.688 14.5921 23.7301 14.5171 23.8052C14.4421 23.8802 14.3999 23.982 14.3999 24.0881C14.3999 24.1942 14.4421 24.2959 14.5171 24.3709C14.5921 24.446 14.6939 24.4881 14.8 24.4881H17.6005C17.7066 24.4881 17.8083 24.446 17.8833 24.3709C17.9584 24.2959 18.0005 24.1942 18.0005 24.0881C18.0005 23.982 17.9584 23.8802 17.8833 23.8052C17.8083 23.7301 17.7066 23.688 17.6005 23.688Z" fill="black"/>
<path d="M13.5999 20.2376C13.7656 20.2376 13.8999 20.1032 13.8999 19.9375C13.8999 19.7718 13.7656 19.6375 13.5999 19.6375C13.4341 19.6375 13.2998 19.7718 13.2998 19.9375C13.2998 20.1032 13.4341 20.2376 13.5999 20.2376Z" fill="black"/>
</svg>
