<svg width="35" height="37" viewBox="0 0 35 37" fill="none" xmlns="http://www.w3.org/2000/svg">
<path d="M15.7746 6.89776C17.5436 3.96489 19.4553 5.95002 20.1536 7.31268C19.5872 7.31268 19.1185 7.88299 19.1185 7.88299C17.8528 5.87537 16.8075 6.40313 16.7784 6.43222C14.3053 7.56696 13.6215 15.4956 13.6215 15.5101C13.8543 10.4911 15.5128 7.31965 15.7746 6.89776Z" fill="#7FF900" stroke="black" stroke-width="0.2"/>
<path d="M19.0042 22.5804C19.7723 22.1637 20.6931 21.6042 21.6632 20.9522C23.2774 19.9133 25.0395 18.6614 25.9987 17.5759C25.9987 17.5759 25.9987 17.5759 25.9987 17.5759C28.1911 15.5565 29.7379 13.4308 29.0714 11.9604C28.5966 10.913 26.9183 10.2437 21.8411 11.7916L22.0272 12.9255C23.3753 12.3872 26.4353 11.2563 28.1113 12.2805C28.1184 12.2663 30.0898 13.648 25.9987 17.5759C24.6739 18.7961 23.1135 19.9776 21.6632 20.9522C20.6349 21.6141 19.6666 22.1895 19.0042 22.5804Z" fill="#7FF900" stroke="black" stroke-width="0.2"/>
<path d="M20.8955 15.261C20.1536 14.7993 19.212 14.2755 18.1657 13.7545C16.4646 12.865 14.5053 11.9521 13.0876 11.6549C13.0876 11.6549 13.0876 11.6549 13.0876 11.6549C10.2483 10.7474 7.6359 10.4536 6.68719 11.7599C6.01138 12.6904 6.25934 14.4802 10.1148 18.1284L10.8568 17.5548C9.72241 16.649 7.37827 14.3995 7.44005 12.4363C7.42421 12.4372 7.6507 10.0405 13.0876 11.6549C14.8031 12.2033 16.6015 12.9757 18.1657 13.7545C19.2494 14.3212 20.2283 14.8784 20.8955 15.261Z" fill="#7FF900" stroke="black" stroke-width="0.2"/>
<path d="M15.5546 18.3615C15.5546 19.5573 16.5495 20.531 17.7823 20.531C19.015 20.531 20.0099 19.5573 20.0099 18.3615C20.0099 17.1657 19.015 16.192 17.7823 16.192C16.5495 16.192 15.5546 17.1657 15.5546 18.3615Z" fill="#7FF900" stroke="black" stroke-width="0.2"/>
<path d="M19.2497 8.6872C19.2497 9.19983 19.6778 9.62011 20.2117 9.62011C20.7457 9.62011 21.1737 9.19983 21.1737 8.6872C21.1737 8.17457 20.7457 7.7543 20.2117 7.7543C19.6778 7.7543 19.2497 8.17457 19.2497 8.6872Z" fill="#7FF900" stroke="black" stroke-width="0.2"/>
<path d="M7.23314 21.082C7.23314 21.5946 7.66121 22.0149 8.19514 22.0149C8.72908 22.0149 9.15714 21.5946 9.15714 21.082C9.15714 20.5693 8.72908 20.1491 8.19514 20.1491C7.6612 20.1491 7.23314 20.5693 7.23314 21.082Z" fill="#7FF900" stroke="black" stroke-width="0.2"/>
<path d="M23.9924 25.301C23.9924 25.8136 24.4204 26.2339 24.9544 26.2339C25.4883 26.2339 25.9164 25.8136 25.9164 25.301C25.9164 24.7883 25.4883 24.3681 24.9544 24.3681C24.4204 24.3681 23.9924 24.7883 23.9924 25.301Z" fill="#7FF900" stroke="black" stroke-width="0.2"/>
<path d="M21.7435 23.6603C22.5727 17.6375 22.0211 12.3718 21.1628 9.78223C21.1628 9.78223 20.8955 9.92376 20.6482 9.9965C20.4008 10.0692 19.9447 10.0703 19.9447 10.0703C20.4248 12.1556 21.7353 15.9894 20.8333 23.3361L21.7435 23.6603Z" fill="#7FF900" stroke="black" stroke-width="0.2"/>
<path d="M23.6419 25.5548C23.479 25.2173 23.6819 24.6408 23.8177 24.5001C17.6057 22.8271 14.6423 20.3818 12.0091 18.5197L11.3177 19.1251C17.2533 23.955 23.6419 25.5548 23.6419 25.5548Z" fill="#7FF900" stroke="black" stroke-width="0.2"/>
<path d="M8.58723 19.7854C8.96099 19.8131 9.41221 20.4139 9.46611 20.6018C14.021 16.0586 17.631 14.6744 20.5603 13.325L20.3115 12.2446C13.1608 14.97 8.58723 19.7854 8.58723 19.7854Z" fill="#7FF900" stroke="black" stroke-width="0.2"/>
<path d="M22.3503 16.1794C22.5068 16.2824 22.6729 16.3948 22.8465 16.5157C25.6466 18.4742 27.4283 20.7636 27.4421 20.7911C30.6572 25.1264 26.1771 24.8323 26.1771 24.8323C26.2934 25.065 26.2552 25.5901 26.1497 25.8088C27.2699 25.8961 29.0191 25.5687 29.2169 24.4863C29.5874 21.8931 25.3962 18.2899 22.8465 16.5157C22.6845 16.4023 22.519 16.2901 22.3503 16.1794Z" fill="#7FF900" stroke="black" stroke-width="0.2"/>
<path d="M21.5833 25.176L20.6302 24.8361C20.0919 27.542 18.4282 32.2869 15.9492 29.5635C15.9777 29.573 14.8599 28.2256 14.1284 24.7772C15.2581 24.3992 16.4293 23.9317 17.3749 23.4097C17.3749 23.4097 16.004 24.0922 14.1142 24.71C14.084 24.5653 14.0545 24.417 14.0257 24.265C13.6367 21.8977 13.4976 19.428 13.5147 17.6891C13.516 17.5843 13.5176 17.4787 13.5197 17.3723C13.5174 17.4749 13.5158 17.5806 13.5147 17.6891C13.4816 20.3957 13.7037 22.5625 14.0257 24.265C14.0504 24.4151 14.076 24.5647 14.1027 24.7137C13.0622 25.0534 11.8653 25.373 10.6538 25.5483C8.04967 25.7633 7.69947 24.9536 7.54049 24.6463C7.10406 23.8025 8.03253 22.3947 8.03253 22.3947C7.77081 22.3947 7.04816 22.0627 6.95441 21.676C6.95441 21.676 3.99079 26.5786 10.4064 25.7374C11.1106 25.6451 12.5732 25.2969 14.115 24.7817C14.6576 27.7724 15.6167 30.4981 17.1858 31.2365C19.3274 32.2443 21.0305 27.8528 21.5833 25.176Z" fill="#7FF900" stroke="black" stroke-width="0.2"/>
</svg>
