<svg width="30" height="29" viewBox="0 0 30 29" fill="none" xmlns="http://www.w3.org/2000/svg">
<path d="M1.13623 13.3359L13.9387 28.3509L26.7413 13.3359L1.13623 13.3359Z" fill="#28DF17"/>
<path d="M26.741 13.3354L13.9384 28.3506L13.3457 27.6555L25.4473 13.3354H26.741Z" fill="#27F713"/>
<path d="M9.21582 13.3359L13.9388 28.3509L18.6618 13.3359L9.21582 13.3359Z" fill="#0CE140"/>
<path d="M23.483 7.76123L4.39458 7.76123L1.13623 13.3358L26.7413 13.3358L23.483 7.76123Z" fill="#0CE140"/>
<path d="M13.9388 7.76123L9.21582 13.3358H13.9388L18.6618 13.3358L13.9388 7.76123Z" fill="#17B208"/>
<path d="M4.39459 7.76123L9.21579 13.3358L1.13623 13.3358L4.39459 7.76123Z" fill="#17B208"/>
<path d="M23.4828 7.76123L18.6616 13.3358L26.7412 13.3358L23.4828 7.76123Z" fill="#17B208"/>
<path d="M26.741 13.3358H25.4471L22.7109 8.65384L23.4829 7.76123L26.741 13.3358Z" fill="#0ABC2D"/>
<path d="M21.8515 0.944761C21.5798 1.57006 21.1035 2.37103 20.3057 2.95591C20.1175 3.09387 20.1175 3.37933 20.3057 3.51729C21.1035 4.10223 21.5798 4.90319 21.8515 5.52844C21.9737 5.80966 22.3735 5.80966 22.4956 5.52844C22.7673 4.90314 23.2436 4.10217 24.0414 3.51729C24.2296 3.37933 24.2296 3.09387 24.0414 2.95591C23.2436 2.37097 22.7673 1.57001 22.4956 0.944761C22.3734 0.663595 21.9737 0.663595 21.8515 0.944761Z" fill="#1CDC0A"/>
<path d="M26.8577 4.75536C26.6306 5.27799 26.2326 5.94739 25.5657 6.43628C25.4084 6.55159 25.4084 6.79016 25.5657 6.90547C26.2326 7.39436 26.6306 8.06376 26.8577 8.58639C26.9598 8.8214 27.2939 8.8214 27.3961 8.58639C27.6232 8.06376 28.0212 7.39436 28.6881 6.90547C28.8454 6.79016 28.8454 6.55159 28.6881 6.43628C28.0212 5.94739 27.6232 5.27799 27.3961 4.75536C27.2939 4.52035 26.9599 4.52035 26.8577 4.75536Z" fill="#1CDC0A"/>
<path d="M24.0412 3.517C23.2434 4.10155 22.7668 4.90246 22.4951 5.5277C22.3731 5.80926 21.9732 5.80926 21.8511 5.5277C21.7735 5.34937 21.6796 5.15745 21.5664 4.95986C21.8506 4.46395 21.9775 3.93524 22.5479 3.517C22.7362 3.37881 22.7362 3.09358 22.5479 2.95539C21.9775 2.53665 21.8506 2.00795 21.5664 1.51203C21.6795 1.31438 21.7734 1.12252 21.8511 0.94419C21.9732 0.663135 22.3731 0.663135 22.4951 0.94419C22.7668 1.56938 23.2434 2.37034 24.0412 2.95539C24.2295 3.09358 24.2295 3.37881 24.0412 3.517Z" fill="#0F7005"/>
<path d="M28.6882 6.90538C28.0212 7.39449 27.6229 8.064 27.396 8.58653C27.2938 8.8217 26.9596 8.8217 26.8574 8.58653C26.7718 8.38837 26.6613 8.1694 26.5205 7.94725C26.75 7.58274 26.862 7.20942 27.2761 6.90538C27.4331 6.79013 27.4331 6.55183 27.2761 6.43608C26.8621 6.13259 26.75 5.75922 26.5205 5.39476C26.6613 5.17211 26.7718 4.95364 26.8574 4.75548C26.9596 4.52031 27.2938 4.52031 27.396 4.75548C27.6229 5.27795 28.0212 5.94752 28.6882 6.43608C28.8451 6.55183 28.8451 6.79013 28.6882 6.90538Z" fill="#0F7005"/>
<path d="M23.8429 7.55074C23.7695 7.42514 23.6243 7.34424 23.483 7.34424C23.4797 7.34424 4.39455 7.34424 4.39455 7.34424C4.39322 7.34424 4.39199 7.34446 4.39066 7.34452C4.24963 7.34596 4.1101 7.42553 4.03733 7.54651C4.03694 7.54718 4.03639 7.54779 4.036 7.54846L2.91356 9.44068C2.79608 9.63866 2.86139 9.89439 3.05938 10.0118C3.25753 10.1293 3.51314 10.064 3.63056 9.86599L4.4578 8.47152L8.3041 12.9188L1.86272 12.9188L2.68028 11.5201C2.79647 11.3214 2.72949 11.066 2.53073 10.9499C2.33207 10.8337 2.07669 10.9007 1.96049 11.0994C1.94457 11.1267 1.41625 12.0305 1.16805 12.4551C1.05803 12.6434 0.948014 12.8316 0.837998 13.0198C0.729874 13.2047 0.655824 13.4042 0.812832 13.5978C0.815059 13.6005 0.816729 13.6035 0.819012 13.6062C0.819012 13.6062 13.6058 28.6027 13.6215 28.621C13.7804 28.8073 14.0952 28.8095 14.2559 28.621L19.7929 22.1272L19.9713 21.9246C20.1235 21.7517 20.1068 21.4883 19.934 21.3362C19.7612 21.1841 19.4978 21.2009 19.3457 21.3736L19.1651 21.5786C19.1637 21.5803 19.1622 21.582 19.1608 21.5837L14.9514 26.5205L18.9676 13.7525L25.8381 13.7525L20.5818 19.9171C20.4324 20.0923 20.4534 20.3554 20.6285 20.5048C20.8037 20.6541 21.0668 20.6331 21.2162 20.458L27.0584 13.6062C27.0601 13.6043 27.0613 13.602 27.0629 13.6C27.1104 13.5421 27.1407 13.4771 27.1534 13.4098C27.1712 13.3153 27.1542 13.2162 27.1011 13.1254C27.0996 13.1226 23.8429 7.55074 23.8429 7.55074ZM5.3062 8.17794L13.0393 8.17794L9.21257 12.6947L5.3062 8.17794ZM13.9388 8.40593L17.7622 12.9188H10.1154L13.9388 8.40593ZM2.03944 13.7525L8.90991 13.7525L12.9261 26.5205L2.03944 13.7525ZM13.9388 26.9614L9.78386 13.7525L18.0937 13.7525L13.9388 26.9614ZM18.665 12.6947L14.8383 8.17794L22.5714 8.17794L18.665 12.6947ZM19.5735 12.9188L23.4171 8.47441L26.0148 12.9188L19.5735 12.9188Z" fill="black"/>
<path d="M20.0591 3.85335C20.7989 4.39569 21.2342 5.15384 21.4691 5.69446C21.591 5.97484 21.8674 6.15607 22.1734 6.15607C22.4795 6.15607 22.756 5.97484 22.8779 5.69446C23.1128 5.15389 23.548 4.39569 24.2878 3.85335C24.4829 3.71032 24.5993 3.47971 24.5993 3.23651C24.5993 2.99326 24.4829 2.76265 24.2878 2.61962C23.548 2.07727 23.1128 1.31907 22.8778 0.778508C22.7559 0.498121 22.4795 0.316895 22.1734 0.316895C21.8674 0.316895 21.5909 0.498121 21.4691 0.778508C21.2342 1.31901 20.7989 2.07727 20.0591 2.61962C19.864 2.76265 19.7476 2.99326 19.7476 3.23651C19.7476 3.47971 19.864 3.71032 20.0591 3.85335ZM22.1735 1.24491C22.453 1.84839 22.9358 2.63515 23.7209 3.2364C22.9357 3.8377 22.4529 4.62447 22.1735 5.22789C21.894 4.62441 21.4112 3.83765 20.6261 3.2364C21.4112 2.63509 21.8939 1.84844 22.1735 1.24491Z" fill="black"/>
<path d="M28.9343 6.09993C28.3284 5.65574 27.9711 5.03311 27.7782 4.58904C27.6655 4.3297 27.4098 4.16211 27.1267 4.16211C27.1267 4.16211 27.1267 4.16211 27.1266 4.16211C26.8436 4.16211 26.5879 4.3297 26.4752 4.58904C26.2822 5.03311 25.925 5.65574 25.319 6.09998C25.1385 6.23238 25.0308 6.44573 25.0308 6.67072C25.0308 6.89571 25.1386 7.10906 25.3191 7.24146C25.925 7.68565 26.2823 8.30828 26.4752 8.7523C26.588 9.0117 26.8437 9.17928 27.1268 9.17923C27.4098 9.17923 27.6655 9.01164 27.7782 8.7523C27.9712 8.30828 28.3284 7.68565 28.9343 7.24141C29.1148 7.10901 29.2226 6.89566 29.2226 6.67072C29.2226 6.44573 29.1148 6.23233 28.9343 6.09993ZM27.1266 8.17699C26.8919 7.70458 26.517 7.13089 25.9442 6.67067C26.5171 6.21045 26.8919 5.63676 27.1266 5.16434C27.3615 5.63681 27.7362 6.21045 28.3091 6.67072C27.7362 7.13095 27.3615 7.70458 27.1266 8.17699Z" fill="black"/>
</svg>
