<svg width="31" height="31" viewBox="0 0 31 31" fill="none" xmlns="http://www.w3.org/2000/svg">
<path d="M17.0045 13.6997L16.2525 13.938L17.0045 14.1763L20.6346 15.3267L17.0045 16.4771L16.2525 16.7155L17.0045 16.9538L20.6346 18.1042L14.6258 20.0085L8.61706 18.1042L12.2471 16.9538L12.9991 16.7155L12.2471 16.4771L8.61707 15.3267L12.2471 14.1763L12.9991 13.938L12.2471 13.6997L8.20642 12.4191L14.6258 4.12524L21.0452 12.4191L17.0045 13.6997Z" fill="#38F700" stroke="black" stroke-width="0.5"/>
<path d="M14.5503 22.1764L14.6258 22.2003L14.7013 22.1764L20.7194 20.2691L14.6258 27.5479L8.53218 20.2691L14.5503 22.1764Z" fill="#38F700" stroke="black" stroke-width="0.5"/>
<path d="M14.876 14.3744V4.44824L21.0454 12.4191L14.876 14.3744Z" fill="#218D00" stroke="black" stroke-width="0.5"/>
<path d="M14.876 22.1211L20.7196 20.2691L14.876 27.2493V22.1211Z" fill="#218D00" stroke="black" stroke-width="0.5"/>
<path d="M14.5503 14.9547L14.6258 14.9786L14.7014 14.9547L17.08 14.2007L20.6346 15.3272L14.6258 17.2316L8.61706 15.3272L12.1716 14.2007L14.5503 14.9547Z" fill="#A5FF8B" stroke="black" stroke-width="0.5"/>
<path d="M14.5503 17.732L14.6258 17.7559L14.7014 17.732L17.08 16.9781L20.6346 18.1046L14.6258 20.0089L8.61706 18.1046L12.1716 16.9781L14.5503 17.732Z" fill="#A5FF8B" stroke="black" stroke-width="0.5"/>
<mask id="path-7-inside-1_16270_16661" fill="white">
<path d="M9.98082 9.71897C10.1515 9.8509 10.3968 9.81955 10.5288 9.64885C10.6741 9.46081 10.6278 9.21975 10.4644 9.09343C10.3031 8.96878 10.0583 8.98074 9.91071 9.17097C9.77877 9.34167 9.81012 9.58699 9.98082 9.71897Z"/>
</mask>
<path d="M9.98082 9.71897C10.1515 9.8509 10.3968 9.81955 10.5288 9.64885C10.6741 9.46081 10.6278 9.21975 10.4644 9.09343C10.3031 8.96878 10.0583 8.98074 9.91071 9.17097C9.77877 9.34167 9.81012 9.58699 9.98082 9.71897Z" fill="#218D00"/>
<path d="M9.98082 9.71897L9.67499 10.1145L9.67506 10.1146L9.98082 9.71897ZM10.5288 9.64885L10.1332 9.34305L10.1332 9.34309L10.5288 9.64885ZM10.4644 9.09343L10.1586 9.48904L10.1586 9.48904L10.4644 9.09343ZM9.91071 9.17097L9.51563 8.86452L9.51509 8.86521L9.91071 9.17097ZM9.67506 10.1146C10.0641 10.4153 10.6235 10.344 10.9244 9.95461L10.1332 9.34309C10.1702 9.29516 10.2389 9.28653 10.2866 9.32335L9.67506 10.1146ZM10.9244 9.95465C11.2447 9.5402 11.1441 8.98683 10.7702 8.69783L10.1586 9.48904C10.1364 9.47182 10.1212 9.44609 10.1171 9.4168C10.1125 9.38349 10.1234 9.35567 10.1332 9.34305L10.9244 9.95465ZM10.7702 8.69783C10.4019 8.41316 9.84078 8.44534 9.51563 8.86452L10.3058 9.47742C10.2967 9.48914 10.2723 9.50717 10.2381 9.51101C10.2088 9.51429 10.1807 9.50612 10.1586 9.48904L10.7702 8.69783ZM9.51509 8.86521C9.21438 9.25429 9.28577 9.81359 9.67499 10.1145L10.2867 9.32341C10.3345 9.36038 10.3432 9.42906 10.3063 9.47674L9.51509 8.86521Z" fill="black" mask="url(#path-7-inside-1_16270_16661)"/>
<path d="M14.5835 17.6278L14.5835 17.6278C14.5905 17.63 14.597 17.6323 14.603 17.6345C14.678 17.6191 14.8428 17.5727 15.2281 17.4531C15.6582 17.3196 16.3448 17.1011 17.4528 16.7485C18.4344 16.4361 19.7469 16.0184 21.5047 15.4613L21.5047 15.4613C21.6345 15.4202 21.6345 15.2343 21.5047 15.1932L19.3295 14.5039L19.3295 14.5039C19.2555 14.4804 19.1764 14.5214 19.153 14.5954C19.1295 14.6695 19.1705 14.7485 19.2445 14.772C19.2445 14.772 19.2445 14.772 19.2446 14.772L20.2446 15.0889L20.9967 15.3272L20.2446 15.5655L14.7014 17.3222L14.6259 17.3462L14.5504 17.3222L9.00727 15.5655L8.25525 15.3272L9.00727 15.0889L12.0964 14.11L12.1719 14.086L12.2474 14.11C12.8401 14.2978 13.2853 14.4407 13.6225 14.549C14.0006 14.6703 14.243 14.7481 14.405 14.7967C14.5599 14.8432 14.6185 14.8555 14.6438 14.8581C14.6475 14.857 14.6506 14.856 14.6553 14.8545C14.6586 14.8534 14.6627 14.8521 14.6685 14.8503C16.6258 14.23 18.0304 13.7895 19.0412 13.4725C19.8925 13.2056 20.4646 13.0262 20.8523 12.9007C21.2824 12.7615 21.4658 12.6948 21.5504 12.6532C21.5594 12.6487 21.566 12.6452 21.5708 12.6425C21.5737 12.6372 21.5779 12.6298 21.5838 12.6195L21.5838 12.6195C21.5961 12.5981 21.6008 12.5811 21.6023 12.5598L21.6023 12.5596C21.6027 12.5543 21.6031 12.5493 21.6036 12.5446C21.5999 12.538 21.5951 12.5299 21.589 12.5199C21.5188 12.4057 21.3462 12.1692 20.9328 11.6294C20.5012 11.0658 19.8172 10.1841 18.7347 8.78888C17.7604 7.53311 16.4633 5.86134 14.7372 3.63115L14.737 3.63089C14.6891 3.56892 14.5968 3.55935 14.5373 3.60815L14.537 3.60836C14.5361 3.60911 14.5352 3.60985 14.5343 3.61057C14.5307 3.6148 14.5255 3.62108 14.5183 3.63007C14.4738 3.68489 14.3781 3.80724 14.1598 4.08876C13.9427 4.36881 13.606 4.80395 13.0815 5.482C12.5553 6.16222 11.84 7.08689 10.8665 8.34471C10.8189 8.40614 10.8302 8.49446 10.8916 8.54198L14.5835 17.6278ZM14.5835 17.6278L12.2474 16.8874L12.1719 16.8635L12.0964 16.8874L9.00727 17.8664L8.25525 18.1047L9.00727 18.343L14.5504 20.0997L14.626 20.1236L14.7015 20.0997L20.2447 18.343L20.9967 18.1047L20.2447 17.8664L19.4916 17.6277C19.4916 17.6277 19.4916 17.6277 19.4916 17.6277C19.4175 17.6042 19.3765 17.5252 19.4 17.4512L19.4 17.4511M14.5835 17.6278L19.4 17.4511M7.51773 12.8297C7.52552 12.8373 7.53153 12.8438 7.5379 12.8499C7.60572 12.9148 7.71449 12.937 10.4649 13.8074L10.8033 13.7002L10.8788 13.9385L10.8033 14.1768C10.6864 14.1398 10.5737 14.1041 10.465 14.0696L7.67169 14.9548M7.51773 12.8297L7.67169 14.9548M7.51773 12.8297C7.47124 12.7846 7.43916 12.7317 7.41973 12.6739M7.51773 12.8297L7.74722 15.1932M7.51773 12.8297L7.51773 12.8297L7.51773 12.8297ZM7.67169 14.9548L7.74722 15.1932M7.67169 14.9548L7.74722 15.1932M7.41973 12.6739L7.65676 12.5944M7.41973 12.6739C7.34885 12.4625 7.37853 12.4246 8.17324 11.4096C8.36631 11.163 8.60453 10.8587 8.89743 10.4803L7.6567 12.5942L7.41973 12.6739ZM7.65676 12.5944C7.66404 12.616 7.67521 12.6342 7.69185 12.6503L7.69209 12.6505C7.69664 12.655 7.70012 12.6584 7.70276 12.661C7.70285 12.661 7.70295 12.6611 7.70305 12.6611C7.73874 12.6773 7.81914 12.7065 8.02245 12.7726C8.23532 12.8417 8.56725 12.9463 9.0934 13.1122C9.55061 13.2563 10.1545 13.4467 10.9543 13.7002L11.7064 13.9385L10.9543 14.1768L7.74722 15.1932M7.65676 12.5944C7.64854 12.5699 7.64584 12.5593 7.6449 12.5546C7.65004 12.5358 7.67251 12.4838 7.76782 12.3488C7.88209 12.187 8.06708 11.9507 8.36256 11.5733C8.55579 11.3266 8.79627 11.0194 9.09512 10.6333C9.14263 10.5719 9.23102 10.5606 9.29248 10.6082C9.35385 10.6557 9.36512 10.744 9.31757 10.8055L8.24336 12.1934L8.0242 12.4765L8.36554 12.5847L14.1598 14.4209L14.4853 14.5241V14.1826V4.86018V4.12873L14.0376 4.70716L11.0889 8.51687L11.0889 8.51688C11.0414 8.57826 10.9531 8.58957 10.8916 8.542L7.65676 12.5944ZM7.74722 15.1932C7.61728 15.2343 7.61764 15.4202 7.74719 15.4613M7.74722 15.1932L7.74719 15.4613M11.7064 16.716L10.9544 16.9543L7.74721 17.9706M11.7064 16.716L7.74721 17.9706M11.7064 16.716L10.9544 16.4776L7.74721 15.4613L7.74719 15.4613M11.7064 16.716L7.74719 15.4613M7.74721 17.9706C7.61728 18.0118 7.61764 18.1977 7.74719 18.2388L7.74722 18.2388L14.5835 20.4052L14.5835 20.4052C14.5905 20.4074 14.597 20.4097 14.603 20.412M7.74721 17.9706L14.603 20.412M14.603 20.412C14.678 20.3966 14.8428 20.3501 15.2281 20.2306C15.6582 20.0971 16.3448 19.8786 17.453 19.5259C18.4346 19.2135 19.747 18.7958 21.5047 18.2388C21.6345 18.1976 21.6344 18.0117 21.5047 17.9706L19.5767 17.3596L14.603 20.412ZM19.4 17.4511C19.4234 17.3774 19.5022 17.3362 19.5766 17.3596L19.4 17.4511ZM21.6098 12.5033L21.6098 12.5033L21.6098 12.5033ZM14.5744 17.6394C14.5745 17.6393 14.5749 17.6393 14.5757 17.6393L14.5744 17.6394ZM14.5744 20.4168C14.5745 20.4168 14.5749 20.4168 14.5756 20.4167L14.5744 20.4168ZM14.7666 14.1826V14.5241L15.0921 14.4209L20.8863 12.5847L21.2277 12.4765L21.0085 12.1934L15.2143 4.70716L14.7666 4.12873V4.86018V14.1826Z" fill="#218D00" stroke="black" stroke-width="0.5"/>
<path d="M21.4196 19.6367L21.4196 19.6367C21.5522 19.5947 21.6595 19.754 21.5699 19.861C19.7145 22.0774 18.3618 23.6933 17.3754 24.8717C16.4765 25.9455 15.8817 26.656 15.4878 27.1264C15.0746 27.6199 14.8826 27.8489 14.7924 27.9561C14.7507 28.0057 14.7319 28.0278 14.7233 28.0377C14.6928 28.0671 14.6533 28.0795 14.612 28.0761C14.5672 28.0724 14.5368 28.0517 14.5244 28.0351L14.5247 28.0348L14.5161 28.0246L7.68172 19.861L7.68171 19.861C7.5924 19.7544 7.69889 19.5945 7.83205 19.6367C7.83205 19.6367 7.83205 19.6367 7.83205 19.6367L14.5503 21.7658L14.6258 21.7897L14.7013 21.7658L21.4196 19.6367ZM14.4852 22.2233V22.0403L14.3107 21.985L9.02543 20.31L8.20729 20.0507L8.75821 20.7088L14.0435 27.022L14.4852 27.5496V26.8615V22.2233ZM14.7664 26.8615V27.5496L15.2081 27.022L20.4933 20.7087L21.0443 20.0506L20.2261 20.3099L14.9409 21.9849L14.7664 22.0402V22.2232V26.8615Z" fill="#218D00" stroke="black" stroke-width="0.5"/>
</svg>
