<svg width="24" height="24" viewBox="0 0 24 24" fill="none" xmlns="http://www.w3.org/2000/svg">
<path d="M8.34766 9.44971V21.3002H15.7897V9.44971C15.7897 8.9535 15.3875 8.55127 14.8913 8.55127H9.24609C8.74989 8.55127 8.34766 8.9535 8.34766 9.44971Z" fill="#FED402"/>
<path d="M14.8913 8.55127H14.4126C14.4311 8.62319 14.4421 8.69816 14.4421 8.77588V14.532C14.4421 17.8979 11.7135 20.6264 8.34766 20.6264V21.3002H15.7897V9.44971C15.7897 8.9535 15.3875 8.55127 14.8913 8.55127Z" fill="#FAC600"/>
<path d="M15.79 16.8618V21.3002H22.5583V16.8618C22.5583 16.3656 22.156 15.9634 21.6598 15.9634H16.6885C16.1923 15.9634 15.79 16.3656 15.79 16.8618Z" fill="#FD4755"/>
<path d="M21.6598 15.9634H21.1811C21.1997 16.0353 21.2106 16.1103 21.2106 16.188C21.2106 18.6392 19.2235 20.6264 16.7722 20.6264H15.79V21.3002H22.5582V16.8618C22.5582 16.3656 22.156 15.9634 21.6598 15.9634Z" fill="#FB2B3A"/>
<path d="M8.34782 14.8403V21.3002H1.57959V14.8403C1.57959 14.3441 1.98182 13.9419 2.47803 13.9419H7.44939C7.94555 13.9419 8.34782 14.3441 8.34782 14.8403Z" fill="#FE9738"/>
<path d="M7.44939 13.9419H6.9707C6.98925 14.0138 7.00017 14.0888 7.00017 14.1665V15.2058C7.00017 18.1995 4.57331 20.6264 1.57959 20.6264V21.3002H8.34782V14.8403C8.34782 14.3441 7.94555 13.9419 7.44939 13.9419Z" fill="#FE860A"/>
<path d="M22.8426 23.0523H1.29501C1.08006 23.0523 0.905762 22.878 0.905762 22.663V21.6895C0.905762 21.4746 1.08001 21.3003 1.29501 21.3003H22.8427C23.0576 21.3003 23.2319 21.4745 23.2319 21.6895V22.663C23.2319 22.878 23.0576 23.0523 22.8426 23.0523Z" fill="#97D729"/>
<path d="M22.8428 21.3003H21.4951C21.7101 21.3003 21.8844 21.4745 21.8844 21.6895V22.663C21.8844 22.878 21.7101 23.0523 21.4951 23.0523H22.8428C23.0577 23.0523 23.232 22.878 23.232 22.663V21.6895C23.232 21.4745 23.0578 21.3003 22.8428 21.3003Z" fill="#8BC727"/>
<path d="M11.2861 5.20068H12.8517V6.91872H11.2861V5.20068Z" fill="#FEDF30"/>
<path d="M12.0688 5.20068H12.8516V6.91872H12.0688V5.20068Z" fill="#FED402"/>
<path d="M14.0783 8.55134H10.0601V7.44056C10.0601 7.15234 10.2937 6.9187 10.5819 6.9187H13.5565C13.8447 6.9187 14.0783 7.15234 14.0783 7.44056V8.55134Z" fill="#918291"/>
<path d="M13.5561 6.9187H12.2085C12.4967 6.9187 12.7304 7.15234 12.7304 7.44056V8.55134H14.078V7.44056C14.078 7.15234 13.8444 6.9187 13.5561 6.9187Z" fill="#7A6D79"/>
<path d="M12.8518 5.2007H11.2862C10.272 4.19894 9.70117 2.83282 9.70117 1.40731V0.900012C9.70117 0.803924 9.77907 0.726074 9.87511 0.726074H14.2628C14.3588 0.726074 14.4367 0.803969 14.4367 0.900012V1.40731C14.4368 2.83282 13.866 4.19898 12.8518 5.2007Z" fill="#FED402"/>
<path d="M14.2628 0.726074H13.7629V0.733486C13.7629 1.44734 13.6198 2.14632 13.3495 2.79208C12.9066 3.85035 11.8567 4.52687 10.7095 4.52687C10.8817 4.76549 11.0741 4.99118 11.2862 5.2007H12.8518C13.866 4.19894 14.4368 2.83282 14.4368 1.40731V0.900012C14.4368 0.803969 14.3589 0.726074 14.2628 0.726074Z" fill="#FAC600"/>
<path d="M19.174 16.8307C18.6643 16.8307 18.2231 17.1933 18.125 17.6929C18.0891 17.8755 18.208 18.0525 18.3906 18.0884C18.5733 18.1241 18.7503 18.0053 18.7862 17.8228C18.8224 17.6384 18.9855 17.5045 19.174 17.5045C19.3919 17.5045 19.5692 17.6818 19.5692 17.8998C19.5692 18.1177 19.3919 18.295 19.174 18.295C18.9879 18.295 18.8371 18.4458 18.8371 18.6319C18.8371 18.818 18.9879 18.9688 19.174 18.9688C19.3919 18.9688 19.5692 19.1461 19.5692 19.3641C19.5692 19.582 19.3919 19.7593 19.174 19.7593C18.9565 19.7593 18.7787 19.5801 18.7787 19.3641C18.7787 19.178 18.6279 19.0272 18.4418 19.0272C18.2558 19.0272 18.1049 19.178 18.1049 19.3641C18.1049 19.9444 18.5884 20.4331 19.174 20.4331C19.7635 20.4331 20.243 19.9535 20.243 19.3641C20.243 19.0809 20.1322 18.8233 19.9519 18.6319C20.1322 18.4404 20.243 18.1828 20.243 17.8998C20.243 17.3103 19.7634 16.8307 19.174 16.8307ZM5.96526 16.8947C5.96526 16.3052 5.48567 15.8256 4.89621 15.8256C4.38648 15.8256 3.94535 16.1882 3.84719 16.6878C3.81135 16.8704 3.9303 17.0475 4.11286 17.0833C4.29547 17.119 4.47251 17.0002 4.5084 16.8177C4.54461 16.6333 4.70772 16.4994 4.89621 16.4994C5.10802 16.4994 5.2815 16.667 5.29103 16.8765C5.30019 17.0782 5.18762 17.2138 5.03398 17.4333C4.58086 18.0808 4.31052 18.4348 4.16529 18.6249C3.9834 18.8631 3.90038 18.9718 3.95757 19.1578C3.99126 19.2673 4.07418 19.3514 4.18505 19.3883C4.32669 19.4356 5.28667 19.4159 5.7539 19.4101C5.93997 19.4077 6.08888 19.255 6.08655 19.069C6.08421 18.8843 5.93386 18.7363 5.74972 18.7363C5.74829 18.7363 5.74685 18.7363 5.74541 18.7363C5.46595 18.7398 5.16978 18.7422 4.92101 18.7428C5.07882 18.5314 5.2957 18.2346 5.58598 17.8197C5.80138 17.5119 5.96526 17.2084 5.96526 16.8947ZM12.3746 13.1583H11.763C11.577 13.1583 11.4261 13.3091 11.4261 13.4952C11.4261 13.6813 11.577 13.8321 11.763 13.8321H12.0377V16.3565C12.0377 16.5426 12.1885 16.6934 12.3746 16.6934C12.5607 16.6934 12.7115 16.5426 12.7115 16.3565V13.4952C12.7115 13.3091 12.5607 13.1583 12.3746 13.1583ZM22.895 20.966V16.8619C22.895 16.1808 22.3408 15.6266 21.6596 15.6266H20.477C20.291 15.6266 20.1401 15.7774 20.1401 15.9635C20.1401 16.1496 20.291 16.3004 20.477 16.3004H21.6596C21.9693 16.3004 22.2211 16.5523 22.2211 16.8619V20.9634H16.1267V16.8619C16.1267 16.5523 16.3786 16.3004 16.6883 16.3004H19.1294C19.3154 16.3004 19.4663 16.1496 19.4663 15.9635C19.4663 15.7774 19.3154 15.6266 19.1294 15.6266H16.6883C16.4861 15.6266 16.2953 15.6757 16.1267 15.7621V9.44981C16.1267 8.76866 15.5726 8.21446 14.8914 8.21446H14.4149V7.44055C14.4149 6.96703 14.0296 6.58182 13.5561 6.58182H13.1885V5.33888C13.4235 5.0945 13.6347 4.82955 13.8209 4.54875C14.8182 4.508 15.734 3.91521 16.1753 3.01493L16.665 2.01632C16.7593 1.82392 16.748 1.60057 16.6347 1.41886C16.5214 1.23711 16.3257 1.12857 16.1113 1.12857H14.7735V0.900012C14.7735 0.618352 14.5443 0.38916 14.2626 0.38916H9.87498C9.59328 0.38916 9.36408 0.618352 9.36408 0.900012V1.12857H8.02631C7.8119 1.12857 7.61627 1.23711 7.50293 1.41886C7.38968 1.60057 7.37836 1.82392 7.4727 2.01632L7.9623 3.01493C8.40366 3.91521 9.31943 4.508 10.3167 4.54875C10.5029 4.82951 10.7141 5.0945 10.9491 5.33888V6.58182H10.5815C10.108 6.58182 9.72274 6.96703 9.72274 7.44055V8.21446H9.24621C8.56502 8.21446 8.01086 8.76866 8.01086 9.44981V13.7407C7.84227 13.6542 7.65149 13.6051 7.44934 13.6051H2.47802C1.79683 13.6051 1.24267 14.1593 1.24267 14.8404V19.9526C1.24267 20.1387 1.39352 20.2896 1.57959 20.2896C1.76565 20.2896 1.9165 20.1387 1.9165 19.9526V14.8404C1.9165 14.5308 2.16838 14.2789 2.47802 14.2789H7.44938C7.75903 14.2789 8.01091 14.5308 8.01091 14.8404V20.9634H1.29501C0.894576 20.9634 0.568848 21.2892 0.568848 21.6895V22.663C0.568848 23.0634 0.894576 23.3892 1.29501 23.3892H22.8427C23.2431 23.3892 23.5688 23.0634 23.5688 22.663V21.6895C23.5688 21.3068 23.271 20.993 22.895 20.966ZM14.7593 1.8024H16.0194L15.5703 2.71831C15.304 3.26146 14.8088 3.6561 14.2364 3.80825C14.53 3.17971 14.7097 2.49851 14.7593 1.8024ZM8.56735 2.71831L8.11827 1.8024H9.37837C9.42796 2.49851 9.60761 3.17971 9.90126 3.80825C9.32882 3.6561 8.8336 3.26142 8.56735 2.71831ZM10.038 1.06299H14.0997C14.1298 2.46711 13.7064 3.82995 12.7105 4.86378H11.4271C10.4267 3.82173 10.0113 2.48719 10.038 1.06299ZM12.5147 5.53761V6.58182H11.6229V5.53761H12.5147ZM10.3966 7.44059C10.3966 7.33862 10.4796 7.25569 10.5816 7.25569H13.5561C13.6581 7.25569 13.7411 7.33866 13.7411 7.44059V8.21451H10.3967V7.44059H10.3966ZM8.68473 9.44981C8.68473 9.14017 8.93661 8.88829 9.24625 8.88829H14.8914C15.2011 8.88829 15.453 9.14017 15.453 9.44981V20.9634H8.68473V9.44981ZM22.895 22.663C22.895 22.6919 22.8715 22.7153 22.8426 22.7153H1.29501C1.26617 22.7153 1.24267 22.6919 1.24267 22.663V21.6895C1.24267 21.6607 1.26612 21.6372 1.29501 21.6372H22.8427C22.8715 21.6372 22.895 21.6607 22.895 21.6895V22.663H22.895Z" fill="black"/>
</svg>
