<svg width="29" height="29" viewBox="0 0 29 29" fill="none" xmlns="http://www.w3.org/2000/svg">
<g clip-path="url(#clip0_16270_42976)">
<path d="M22.0319 16.1179L18.8813 24.1827C18.4181 26.6945 17.9878 28.5074 17.9878 28.5074H11.9563C11.9563 28.5074 11.3443 25.9299 10.7947 22.6646L8.47705 16.1179L10.5503 10.3555C10.6131 10.2264 10.6815 10.1083 10.7559 10.0011C11.0299 9.60791 11.4575 9.28963 11.9798 9.04736H17.9642C18.486 9.28963 18.9136 9.60791 19.1876 10.0011C19.4413 10.3653 19.6273 10.8619 19.7569 11.458L22.0319 16.1179Z" fill="#EEF0F5"/>
<path d="M22.0319 16.1179L18.8814 24.1827C18.4182 26.6945 17.9878 28.5074 17.9878 28.5074H16.5068C16.5107 28.4959 16.5134 28.4844 16.5156 28.4729C16.6337 27.856 16.9536 26.1728 17.3025 24.2877C16.818 21.5085 16.5046 18.2507 17.413 17.1439C17.6186 16.8939 17.9457 16.6943 18.3449 16.5456C17.7389 15.8313 17.2626 14.8568 17.2883 13.698C17.3107 12.6529 17.6438 11.7856 18.2273 11.196C18.0977 10.6202 17.915 10.14 17.6684 9.7851C17.4693 9.49908 17.1893 9.25354 16.8503 9.04736H17.9643C18.486 9.28963 18.9136 9.60791 19.1876 10.0011C19.4414 10.3653 19.6273 10.8619 19.7569 11.458L22.0319 16.1179Z" fill="#DAE1EA"/>
<path d="M24.1237 28.5073H19.8395C19.8395 28.5073 17.2954 19.4204 18.9874 17.3598C19.1925 17.1098 19.5195 16.9102 19.9193 16.7615L22.7007 16.7669L24.0657 16.7697C24.4551 16.9173 24.7745 17.1142 24.9763 17.3598C26.6678 19.4204 24.1237 28.5073 24.1237 28.5073Z" fill="#EEF0F5"/>
<path d="M24.1239 28.5072H22.7567C22.7567 28.5072 25.3008 19.4203 23.6093 17.3597C23.4075 17.1141 23.0881 16.9172 22.6987 16.7696L22.7009 16.7668L24.0659 16.7696C24.4553 16.9172 24.7747 17.1141 24.9765 17.3597C26.668 19.4203 24.1239 28.5072 24.1239 28.5072Z" fill="#DAE1EA"/>
<path d="M9.52325 28.5074H4.60793C4.60793 28.5074 1.68926 18.0817 3.62957 15.7176C3.87621 15.4174 4.27488 15.1811 4.76106 15.0083H9.37012C9.85629 15.1811 10.255 15.4174 10.5011 15.7176C12.4419 18.0817 9.52325 28.5074 9.52325 28.5074Z" fill="#EEF0F5"/>
<path d="M9.52324 28.5074H7.77324C7.77324 28.5074 10.6919 18.0817 8.75105 15.7176C8.50496 15.4174 8.10629 15.1811 7.62012 15.0083H9.37012C9.85629 15.1811 10.255 15.4174 10.5011 15.7176C12.4419 18.0817 9.52324 28.5074 9.52324 28.5074Z" fill="#DAE1EA"/>
<path d="M10.6743 11.7244C10.6743 14.5747 8.05747 16.4352 7.06544 16.4352C6.90247 16.4352 6.69576 16.3848 6.46388 16.2886C5.26732 15.7904 3.40412 14.0579 3.45716 11.6216C3.50255 9.52703 4.62474 8.05047 6.46388 7.78961C6.65693 7.76227 6.85763 7.74805 7.06544 7.74805C9.25841 7.74805 10.6229 9.30773 10.6732 11.6216C10.6737 11.656 10.6743 11.6905 10.6743 11.7244Z" fill="#A4CE39"/>
<path d="M10.6743 11.7244C10.6743 14.5747 8.05746 16.4352 7.06543 16.4352C6.90246 16.4352 6.69574 16.3848 6.46387 16.2886C7.64348 15.7975 9.47113 14.1066 9.47113 11.7244C9.47113 11.6905 9.47058 11.656 9.47004 11.6216C9.42465 9.52758 8.30246 8.05102 6.46387 7.78961C6.65691 7.76227 6.85762 7.74805 7.06543 7.74805C9.2584 7.74805 10.6228 9.30773 10.6732 11.6216C10.6737 11.656 10.6743 11.6905 10.6743 11.7244Z" fill="#68C044"/>
<path d="M19.0492 5.82022C19.0492 9.04022 16.0928 11.1424 14.9717 11.1424C14.7929 11.1424 14.5681 11.0894 14.3154 10.986C12.9647 10.4369 10.8351 8.47311 10.8953 5.70428C10.9472 3.32975 12.2247 1.6574 14.3154 1.37139C14.526 1.3424 14.7447 1.32764 14.9717 1.32764C17.4496 1.32764 18.9912 3.09022 19.0481 5.70428C19.0492 5.74311 19.0492 5.78193 19.0492 5.82022Z" fill="#A4CE39"/>
<path d="M19.0492 5.82022C19.0492 9.04022 16.0928 11.1424 14.9717 11.1424C14.7929 11.1424 14.5681 11.0894 14.3154 10.986C15.6471 10.444 17.7367 8.52725 17.7367 5.82022C17.7367 5.78193 17.7367 5.74311 17.7356 5.70428C17.6842 3.32975 16.4067 1.6574 14.3154 1.37139C14.526 1.3424 14.7447 1.32764 14.9717 1.32764C17.4496 1.32764 18.9912 3.09022 19.0481 5.70428C19.0492 5.74311 19.0492 5.78193 19.0492 5.82022Z" fill="#68C044"/>
<path d="M25.1021 14.002C25.1021 16.4668 22.8397 18.0757 21.9817 18.0757C21.8411 18.0757 21.6623 18.0325 21.4621 17.9488C20.4274 17.5189 18.8164 16.0205 18.8623 13.9139C18.9017 12.1032 19.8724 10.8268 21.4621 10.6015C21.6289 10.5775 21.8017 10.5654 21.9817 10.5654C23.8777 10.5654 25.0573 11.9135 25.101 13.9139C25.1016 13.9435 25.1021 13.9725 25.1021 14.002Z" fill="#A4CE39"/>
<path d="M25.1019 14.002C25.1019 16.4668 22.8395 18.0757 21.9814 18.0757C21.8409 18.0757 21.6621 18.0325 21.4619 17.9488C22.4818 17.525 24.0629 16.0626 24.0629 14.002C24.0629 13.9725 24.0623 13.9435 24.0618 13.9139C24.0224 12.1032 23.0517 10.8268 21.4619 10.6015C21.6287 10.5775 21.8015 10.5654 21.9814 10.5654C23.8775 10.5654 25.0571 11.9135 25.1008 13.9139C25.1014 13.9435 25.1019 13.9725 25.1019 14.002Z" fill="#68C044"/>
<path d="M13.0816 5.08013C12.8936 4.9537 12.6387 5.00357 12.5123 5.19148C12.3858 5.37944 12.4357 5.63428 12.6236 5.76072L13.5442 6.38011C13.6145 6.42736 13.694 6.45 13.7728 6.45C13.9048 6.45 14.0343 6.38645 14.1135 6.26877C14.2399 6.08081 14.1901 5.82596 14.0021 5.69952L13.0816 5.08013Z" fill="black"/>
<path d="M16.862 5.08016L15.9415 5.69955C15.7535 5.82599 15.7037 6.08088 15.8301 6.26879C15.9093 6.38648 16.0389 6.45002 16.1708 6.45002C16.2495 6.45002 16.3292 6.42738 16.3994 6.38013L17.3199 5.76074C17.5079 5.63431 17.5577 5.37941 17.4313 5.1915C17.3049 5.0036 17.05 4.95367 16.862 5.08016Z" fill="black"/>
<path d="M6.23328 11.5781L5.41849 11.0299C5.23053 10.9034 4.97568 10.9532 4.84919 11.1411C4.72275 11.3291 4.77257 11.584 4.96054 11.7104L5.77532 12.2587C5.8456 12.3059 5.92517 12.3286 6.00392 12.3286C6.13582 12.3286 6.26538 12.265 6.34457 12.1474C6.47106 11.9594 6.42124 11.7045 6.23328 11.5781Z" fill="black"/>
<path d="M8.71234 11.0298L7.89755 11.5781C7.70959 11.7046 7.65977 11.9594 7.7862 12.1473C7.86539 12.265 7.99495 12.3286 8.12685 12.3286C8.2056 12.3286 8.28523 12.3059 8.35545 12.2587L9.17024 11.7104C9.3582 11.5839 9.40802 11.3291 9.28158 11.1412C9.15514 10.9533 8.9003 10.9034 8.71234 11.0298Z" fill="black"/>
<path d="M21.2933 13.8305L20.5889 13.3565C20.401 13.2301 20.1461 13.2799 20.0196 13.4679C19.8932 13.6558 19.943 13.9107 20.1309 14.0371L20.8354 14.5111C20.9057 14.5583 20.9852 14.581 21.064 14.581C21.1959 14.581 21.3254 14.5174 21.4046 14.3997C21.5311 14.2118 21.4812 13.957 21.2933 13.8305Z" fill="black"/>
<path d="M23.3744 13.3565L22.67 13.8305C22.482 13.9569 22.4322 14.2118 22.5587 14.3997C22.6379 14.5174 22.7674 14.581 22.8993 14.581C22.9781 14.581 23.0577 14.5583 23.1279 14.5111L23.8323 14.0371C24.0203 13.9106 24.0701 13.6558 23.9437 13.4678C23.8172 13.2799 23.5623 13.2301 23.3744 13.3565Z" fill="black"/>
<path d="M4.29482 25.4982C4.24642 25.2769 4.02761 25.1367 3.80651 25.1851C3.58525 25.2335 3.44508 25.4521 3.49343 25.6734C3.86355 27.3661 4.20934 28.6055 4.21278 28.6178C4.26348 28.799 4.4282 28.9175 4.60752 28.9175C4.6441 28.9175 4.68135 28.9125 4.71832 28.9023C4.93646 28.8412 5.06378 28.6148 5.00269 28.3967C4.9993 28.3846 4.65991 27.1681 4.29482 25.4982Z" fill="black"/>
<path d="M24.68 16.6029C25.1192 15.9628 25.5359 15.049 25.5109 13.9048C25.487 12.8126 25.1507 11.8816 24.5383 11.2125C23.9051 10.5207 23.021 10.155 21.9815 10.155C21.2198 10.155 20.5415 10.3513 19.9842 10.7285C19.8585 10.3479 19.7045 10.0258 19.5241 9.76668C19.2927 9.43435 18.9687 9.14308 18.5576 8.89721C18.8032 8.50214 19.0033 8.08646 19.1495 7.66209C19.2233 7.44793 19.1095 7.21447 18.8954 7.1407C18.6813 7.06682 18.4478 7.18068 18.374 7.39483C17.627 9.5627 15.6254 10.7322 14.9718 10.7322C14.5521 10.7322 13.6756 10.2923 12.878 9.47706C12.2734 8.85909 11.2652 7.54845 11.3054 5.71275C11.359 3.26095 12.7638 1.73779 14.9718 1.73779C17.1797 1.73779 18.5846 3.26095 18.6382 5.71286C18.6431 5.93932 18.8286 6.11733 19.0572 6.11394C19.2837 6.10896 19.4633 5.92144 19.4583 5.69493C19.3949 2.79277 17.6338 0.91748 14.9718 0.91748C12.3098 0.91748 10.5487 2.79277 10.4853 5.69493C10.4564 7.01519 10.888 8.09631 11.3859 8.89721C11.0836 9.078 10.8284 9.28346 10.6224 9.51173C10.4519 9.15003 10.2354 8.82404 9.97531 8.53982C9.2554 7.75325 8.24915 7.33752 7.06528 7.33752C5.8814 7.33752 4.8751 7.75331 4.15524 8.53982C3.4576 9.30211 3.0744 10.3645 3.04717 11.6121C3.0166 13.0111 3.56445 14.109 4.10335 14.8451C3.77035 15.0175 3.5055 15.2223 3.31267 15.4571C2.37074 16.6044 2.30752 19.4284 3.12477 23.8506C3.16124 24.0482 3.33367 24.1863 3.52765 24.1863C3.55237 24.1863 3.57747 24.1841 3.60263 24.1794C3.82537 24.1382 3.97259 23.9243 3.93141 23.7015C2.92002 18.2291 3.50687 16.5134 3.94667 15.9777C4.09547 15.7964 4.3362 15.631 4.6506 15.4925C4.65356 15.4955 4.65651 15.4986 4.65941 15.5016C5.4456 16.3051 6.41242 16.845 7.06528 16.845C7.71813 16.845 8.68496 16.3051 9.47114 15.5015C9.47404 15.4986 9.47699 15.4955 9.47989 15.4926C9.79429 15.631 10.0351 15.7965 10.1839 15.9777C10.4619 16.3162 10.6411 16.9099 10.7167 17.7421C10.7361 17.9552 10.9149 18.1152 11.1247 18.1152C11.1371 18.1152 11.1497 18.1147 11.1622 18.1136C11.3878 18.0931 11.5541 17.8936 11.5336 17.668C11.4416 16.655 11.2075 15.9318 10.8179 15.4572C10.6251 15.2224 10.3603 15.0176 10.0272 14.8451C10.5661 14.1091 11.114 13.0111 11.0834 11.6122C11.0747 11.2127 11.0295 10.8322 10.9491 10.4745C10.9946 10.3874 11.0427 10.3073 11.0926 10.2355C11.2671 9.98494 11.5255 9.76132 11.8631 9.56833C12.0149 9.75651 12.1614 9.91779 12.2917 10.0509C13.1705 10.9492 14.2476 11.5527 14.9718 11.5527C15.5588 11.5527 16.4063 11.1443 17.1834 10.4869C17.5116 10.2093 17.8127 9.90018 18.0805 9.56839C18.418 9.76138 18.6765 9.985 18.8509 10.2355C19.0376 10.5036 19.1915 10.8764 19.3094 11.3456C18.7702 12.0027 18.4745 12.8833 18.4521 13.9049C18.4272 15.0491 18.8438 15.9628 19.2831 16.6029C19.0294 16.7458 18.8242 16.9119 18.6701 17.0996C17.879 18.0631 17.7823 20.2464 18.3745 23.7741C18.4004 23.9284 18.4271 24.0819 18.4544 24.2341C18.0074 26.6407 17.5926 28.3947 17.5884 28.4125C17.536 28.6329 17.6723 28.854 17.8927 28.9063C17.9246 28.9139 17.9564 28.9175 17.9878 28.9175C18.1735 28.9175 18.3417 28.7905 18.3865 28.6019C18.3895 28.5893 18.5989 27.7043 18.8802 26.3323C19.1789 27.6642 19.4405 28.6032 19.4446 28.6178C19.4953 28.799 19.66 28.9175 19.8393 28.9175C19.8759 28.9175 19.9131 28.9125 19.9501 28.9022C20.1682 28.8411 20.2955 28.6148 20.2345 28.3967C20.2282 28.3742 19.5996 26.1173 19.1834 23.6383C18.4715 19.397 18.9534 18.0472 19.3041 17.6201C19.4141 17.4861 19.5864 17.3614 19.8094 17.2532C19.8272 17.2719 19.8447 17.29 19.8618 17.3076C20.5513 18.0123 21.4031 18.4857 21.9815 18.4857C22.5599 18.4857 23.4117 18.0123 24.1012 17.3076C24.1183 17.2901 24.1358 17.2719 24.1536 17.2532C24.3766 17.3615 24.5489 17.4863 24.6589 17.6202C25.0093 18.047 25.491 19.3955 24.7806 23.632C24.3648 26.1115 23.7348 28.3742 23.7285 28.3968C23.6675 28.6149 23.7948 28.8412 24.0129 28.9023C24.0499 28.9126 24.0871 28.9176 24.1237 28.9176C24.3031 28.9176 24.4678 28.799 24.5185 28.6179C24.5249 28.595 25.1653 26.2959 25.5885 23.7742C26.1807 20.2464 26.084 18.0632 25.2929 17.0997C25.1389 16.9119 24.9337 16.7458 24.68 16.6029ZM8.88478 14.9279C8.14459 15.6844 7.37519 16.0247 7.06528 16.0247C6.75536 16.0247 5.98596 15.6844 5.24577 14.9279C4.71585 14.3862 3.8321 13.2376 3.8672 11.6301C3.91402 9.48827 5.13946 8.15778 7.06528 8.15778C8.9911 8.15778 10.2165 9.48827 10.2633 11.6301C10.2985 13.2375 9.41471 14.3862 8.88478 14.9279ZM21.9815 17.6653C21.7233 17.6653 21.0768 17.3763 20.4482 16.7338C19.9961 16.2718 19.2423 15.2923 19.2722 13.9228C19.312 12.1047 20.3501 10.9753 21.9815 10.9753C23.6129 10.9753 24.651 12.1047 24.6908 13.9228C24.7207 15.2923 23.9669 16.2718 23.5148 16.7338C22.8862 17.3763 22.2398 17.6653 21.9815 17.6653Z" fill="black"/>
<path d="M11.2109 22.6666C11.3762 21.6195 11.5055 20.5451 11.5552 19.5445C11.5665 19.3182 11.3922 19.1257 11.166 19.1144C10.9398 19.1044 10.7472 19.2775 10.736 19.5037C10.5477 23.2878 9.1422 28.3459 9.12809 28.3966C9.067 28.6147 9.19437 28.841 9.41252 28.9021C9.44949 28.9124 9.48667 28.9174 9.52326 28.9174C9.70258 28.9174 9.8673 28.7988 9.91799 28.6177C9.95015 28.5028 10.3781 26.9634 10.7912 24.9581C11.1993 27.0881 11.5525 28.5822 11.5572 28.6019C11.602 28.7904 11.7703 28.9174 11.9559 28.9174C11.9873 28.9174 12.0191 28.9138 12.051 28.9062C12.2714 28.8539 12.4076 28.6328 12.3554 28.4124C12.3492 28.3869 11.7489 25.847 11.2109 22.6666Z" fill="black"/>
<path d="M5.2747 21.1653C5.07258 19.6148 5.06744 18.8396 5.06738 18.8201V18.8197C5.06722 18.5933 4.88363 18.4099 4.65723 18.4099C4.43071 18.4099 4.24707 18.5935 4.24707 18.8201C4.24707 18.9483 4.26605 22.0366 5.91591 28.6072C5.96267 28.7933 6.1298 28.9176 6.31344 28.9176C6.34647 28.9176 6.3801 28.9135 6.41362 28.9051C6.6333 28.8499 6.76669 28.6271 6.71156 28.4074C5.86473 25.0349 5.46277 22.6077 5.2747 21.1653Z" fill="black"/>
<path d="M23.4211 23.6304C23.1982 23.5901 22.9848 23.7381 22.9445 23.961C22.6915 25.3598 22.3792 26.858 22.0162 28.4141C21.9648 28.6347 22.1019 28.8552 22.3225 28.9067C22.3538 28.914 22.3851 28.9175 22.416 28.9175C22.6023 28.9175 22.7709 28.7897 22.815 28.6004C23.1811 27.031 23.4963 25.5191 23.7517 24.1069C23.792 23.884 23.644 23.6707 23.4211 23.6304Z" fill="black"/>
<path d="M23.6412 22.6971C23.8405 22.6971 24.0152 22.5517 24.0461 22.3486C24.1809 21.4631 24.2287 20.9979 24.2307 20.9786C24.2536 20.7532 24.0895 20.552 23.8641 20.529C23.6386 20.5059 23.4375 20.6702 23.4146 20.8955C23.4141 20.9001 23.3664 21.3626 23.2352 22.2252C23.2011 22.4491 23.355 22.6582 23.579 22.6924C23.5999 22.6956 23.6207 22.6971 23.6412 22.6971Z" fill="black"/>
</g>
<defs>
<clipPath id="clip0_16270_42976">
<rect width="28" height="28" fill="white" transform="translate(0.262695 0.91748)"/>
</clipPath>
</defs>
</svg>
