<svg width="31" height="31" viewBox="0 0 31 31" fill="none" xmlns="http://www.w3.org/2000/svg">
<g clip-path="url(#clip0_16270_16666)">
<path d="M16.4058 8.65039V8.40039H16.1558H15.2495H14.3433H14.0933V8.65039V11.3691V11.6191H14.3433H15.2495H16.1558H16.4058V11.3691V8.65039Z" fill="#41F50C" stroke="black" stroke-width="0.5"/>
<path d="M12.7808 10.916V10.666H12.5308H11.6245H10.7183H10.4683V10.916V14.541V14.791H10.7183H11.6245H12.5308H12.7808V14.541V10.916Z" fill="#41F50C" stroke="black" stroke-width="0.5"/>
<path d="M9.15576 12.2754V12.0254H8.90576H7.99951H7.09326H6.84326V12.2754V16.8066V17.0566H7.09326H7.99951H8.90576H9.15576V16.8066V12.2754Z" fill="#41F50C" stroke="black" stroke-width="0.5"/>
<path d="M27.8655 14.9447L27.8641 14.9451C27.6108 15.0224 27.3417 15.0791 27.068 15.1232L26.9882 15.1361L26.931 15.1933L23.7553 18.3689H19.7808H19.6558L19.5808 18.4689L16.937 21.9939H11.6245H11.5111L11.4364 22.0793L5.09262 29.3293L5.03076 29.4V29.4939V29.9471V30.1971H5.28076H30.6558H30.9058V29.9471V13.5439V12.9326L30.4774 13.3688C29.7632 14.096 28.8708 14.6444 27.8655 14.9447Z" fill="#41F50C" stroke="black" stroke-width="0.5"/>
<path d="M30.8341 13.7193L30.8346 13.7188C31.9973 12.5279 32.7183 10.8982 32.7183 9.10352C32.7183 5.46279 29.7652 2.50977 26.1245 2.50977C22.4838 2.50977 19.5308 5.46279 19.5308 9.10352C19.5308 12.7442 22.4838 15.6973 26.1245 15.6973C26.4735 15.6973 26.8125 15.669 27.1461 15.6173L27.1476 15.617C27.4356 15.5706 27.728 15.5095 28.0093 15.4238C29.097 15.0987 30.0622 14.5054 30.8341 13.7193Z" fill="#74DA0B" stroke="black" stroke-width="0.5"/>
<path d="M26.1245 13.8848C28.7651 13.8848 30.9058 11.7441 30.9058 9.10352C30.9058 6.4629 28.7651 4.32227 26.1245 4.32227C23.4839 4.32227 21.3433 6.4629 21.3433 9.10352C21.3433 11.7441 23.4839 13.8848 26.1245 13.8848Z" fill="#41F50C" stroke="black" stroke-width="0.5"/>
<mask id="path-7-inside-1_16270_16666" fill="white">
<path d="M26.5776 12.2754V11.3691C27.3271 11.3691 27.937 10.7592 27.937 10.0098C27.937 9.2603 27.3271 8.65039 26.5776 8.65039H25.6714C25.4213 8.65039 25.2183 8.44739 25.2183 8.19727C25.2183 7.94714 25.4213 7.74414 25.6714 7.74414H27.0308V8.19727H27.937V6.83789H26.5776V5.93164H25.6714V6.83789C24.9219 6.83789 24.312 7.4478 24.312 8.19727C24.312 8.94673 24.9219 9.55664 25.6714 9.55664H26.5776C26.8278 9.55664 27.0308 9.75964 27.0308 10.0098C27.0308 10.2599 26.8278 10.4629 26.5776 10.4629H25.2183V10.0098H24.312V11.3691H25.6714V12.2754H26.5776Z"/>
</mask>
<path d="M26.5776 12.2754V11.3691C27.3271 11.3691 27.937 10.7592 27.937 10.0098C27.937 9.2603 27.3271 8.65039 26.5776 8.65039H25.6714C25.4213 8.65039 25.2183 8.44739 25.2183 8.19727C25.2183 7.94714 25.4213 7.74414 25.6714 7.74414H27.0308V8.19727H27.937V6.83789H26.5776V5.93164H25.6714V6.83789C24.9219 6.83789 24.312 7.4478 24.312 8.19727C24.312 8.94673 24.9219 9.55664 25.6714 9.55664H26.5776C26.8278 9.55664 27.0308 9.75964 27.0308 10.0098C27.0308 10.2599 26.8278 10.4629 26.5776 10.4629H25.2183V10.0098H24.312V11.3691H25.6714V12.2754H26.5776Z" fill="#0E750E"/>
<path d="M26.5776 12.2754V13.2754H27.5776V12.2754H26.5776ZM26.5776 11.3691V10.3691H25.5776V11.3691H26.5776ZM27.0308 7.74414H28.0308V6.74414H27.0308V7.74414ZM27.0308 8.19727H26.0308V9.19727H27.0308V8.19727ZM27.937 8.19727V9.19727H28.937V8.19727H27.937ZM27.937 6.83789H28.937V5.83789H27.937V6.83789ZM26.5776 6.83789H25.5776V7.83789H26.5776V6.83789ZM26.5776 5.93164H27.5776V4.93164H26.5776V5.93164ZM25.6714 5.93164V4.93164H24.6714V5.93164H25.6714ZM25.6714 6.83789V7.83789H26.6714V6.83789H25.6714ZM25.2183 10.4629H24.2183V11.4629H25.2183V10.4629ZM25.2183 10.0098H26.2183V9.00977H25.2183V10.0098ZM24.312 10.0098V9.00977H23.312V10.0098H24.312ZM24.312 11.3691H23.312V12.3691H24.312V11.3691ZM25.6714 11.3691H26.6714V10.3691H25.6714V11.3691ZM25.6714 12.2754H24.6714V13.2754H25.6714V12.2754ZM27.5776 12.2754V11.3691H25.5776V12.2754H27.5776ZM26.5776 12.3691C27.8794 12.3691 28.937 11.3115 28.937 10.0098H26.937C26.937 10.2069 26.7748 10.3691 26.5776 10.3691V12.3691ZM28.937 10.0098C28.937 8.70801 27.8794 7.65039 26.5776 7.65039V9.65039C26.7748 9.65039 26.937 9.81258 26.937 10.0098H28.937ZM26.5776 7.65039H25.6714V9.65039H26.5776V7.65039ZM25.6714 7.65039C25.9735 7.65039 26.2183 7.89511 26.2183 8.19727H24.2183C24.2183 8.99968 24.869 9.65039 25.6714 9.65039V7.65039ZM26.2183 8.19727C26.2183 8.49943 25.9735 8.74414 25.6714 8.74414V6.74414C24.869 6.74414 24.2183 7.39486 24.2183 8.19727H26.2183ZM25.6714 8.74414H27.0308V6.74414H25.6714V8.74414ZM26.0308 7.74414V8.19727H28.0308V7.74414H26.0308ZM27.0308 9.19727H27.937V7.19727H27.0308V9.19727ZM28.937 8.19727V6.83789H26.937V8.19727H28.937ZM27.937 5.83789H26.5776V7.83789H27.937V5.83789ZM27.5776 6.83789V5.93164H25.5776V6.83789H27.5776ZM26.5776 4.93164H25.6714V6.93164H26.5776V4.93164ZM24.6714 5.93164V6.83789H26.6714V5.93164H24.6714ZM25.6714 5.83789C24.3696 5.83789 23.312 6.89551 23.312 8.19727H25.312C25.312 8.00008 25.4742 7.83789 25.6714 7.83789V5.83789ZM23.312 8.19727C23.312 9.49902 24.3696 10.5566 25.6714 10.5566V8.55664C25.4742 8.55664 25.312 8.39445 25.312 8.19727H23.312ZM25.6714 10.5566H26.5776V8.55664H25.6714V10.5566ZM26.5776 10.5566C26.2755 10.5566 26.0308 10.3119 26.0308 10.0098H28.0308C28.0308 9.20736 27.38 8.55664 26.5776 8.55664V10.5566ZM26.0308 10.0098C26.0308 9.70761 26.2755 9.46289 26.5776 9.46289V11.4629C27.38 11.4629 28.0308 10.8122 28.0308 10.0098H26.0308ZM26.5776 9.46289H25.2183V11.4629H26.5776V9.46289ZM26.2183 10.4629V10.0098H24.2183V10.4629H26.2183ZM25.2183 9.00977H24.312V11.0098H25.2183V9.00977ZM23.312 10.0098V11.3691H25.312V10.0098H23.312ZM24.312 12.3691H25.6714V10.3691H24.312V12.3691ZM24.6714 11.3691V12.2754H26.6714V11.3691H24.6714ZM25.6714 13.2754H26.5776V11.2754H25.6714V13.2754Z" fill="black" mask="url(#path-7-inside-1_16270_16666)"/>
<mask id="path-9-inside-2_16270_16666" fill="white">
<path d="M31.1089 9.10352C31.1089 6.35531 28.8727 4.11914 26.1245 4.11914C23.3763 4.11914 21.1401 6.35531 21.1401 9.10352C21.1401 11.8517 23.3763 14.0879 26.1245 14.0879C28.8727 14.0879 31.1089 11.8517 31.1089 9.10352ZM22.0464 9.10352C22.0464 6.85466 23.8757 5.02539 26.1245 5.02539C28.3734 5.02539 30.2026 6.85466 30.2026 9.10352C30.2026 11.3524 28.3734 13.1816 26.1245 13.1816C23.8757 13.1816 22.0464 11.3524 22.0464 9.10352Z"/>
</mask>
<path d="M31.1089 9.10352C31.1089 6.35531 28.8727 4.11914 26.1245 4.11914C23.3763 4.11914 21.1401 6.35531 21.1401 9.10352C21.1401 11.8517 23.3763 14.0879 26.1245 14.0879C28.8727 14.0879 31.1089 11.8517 31.1089 9.10352ZM22.0464 9.10352C22.0464 6.85466 23.8757 5.02539 26.1245 5.02539C28.3734 5.02539 30.2026 6.85466 30.2026 9.10352C30.2026 11.3524 28.3734 13.1816 26.1245 13.1816C23.8757 13.1816 22.0464 11.3524 22.0464 9.10352Z" fill="#0E750E"/>
<path d="M32.1089 9.10352C32.1089 5.80303 29.425 3.11914 26.1245 3.11914V5.11914C28.3204 5.11914 30.1089 6.9076 30.1089 9.10352H32.1089ZM26.1245 3.11914C22.824 3.11914 20.1401 5.80303 20.1401 9.10352H22.1401C22.1401 6.9076 23.9286 5.11914 26.1245 5.11914V3.11914ZM20.1401 9.10352C20.1401 12.404 22.824 15.0879 26.1245 15.0879V13.0879C23.9286 13.0879 22.1401 11.2994 22.1401 9.10352H20.1401ZM26.1245 15.0879C29.425 15.0879 32.1089 12.404 32.1089 9.10352H30.1089C30.1089 11.2994 28.3204 13.0879 26.1245 13.0879V15.0879ZM23.0464 9.10352C23.0464 7.40694 24.4279 6.02539 26.1245 6.02539V4.02539C23.3234 4.02539 21.0464 6.30237 21.0464 9.10352H23.0464ZM26.1245 6.02539C27.8211 6.02539 29.2026 7.40694 29.2026 9.10352H31.2026C31.2026 6.30237 28.9257 4.02539 26.1245 4.02539V6.02539ZM29.2026 9.10352C29.2026 10.8001 27.8211 12.1816 26.1245 12.1816V14.1816C28.9257 14.1816 31.2026 11.9047 31.2026 9.10352H29.2026ZM26.1245 12.1816C24.4279 12.1816 23.0464 10.8001 23.0464 9.10352H21.0464C21.0464 11.9047 23.3234 14.1816 26.1245 14.1816V12.1816Z" fill="black" mask="url(#path-9-inside-2_16270_16666)"/>
<mask id="path-11-inside-3_16270_16666" fill="white">
<path d="M32.9214 9.10352C32.9214 5.35572 29.8723 2.30664 26.1245 2.30664C22.3767 2.30664 19.3276 5.35572 19.3276 9.10352C19.3276 11.989 21.1379 14.454 23.6804 15.4382L22.765 16.3535H19.1219L15.95 19.9785H10.5202L4.94817 26.0146L5.61381 26.6295L10.9167 20.8848H16.3619L19.5338 17.2598H23.1407L24.6627 15.7377C25.0778 15.8293 25.5069 15.88 25.9464 15.8913L23.6713 18.166H19.5542L16.8354 21.791H11.4188L4.82764 29.3238V30.4004H31.1089V13.7091C32.2299 12.4965 32.9214 10.8811 32.9214 9.10352ZM20.2339 9.10352C20.2339 5.85552 22.8765 3.21289 26.1245 3.21289C29.3725 3.21289 32.0151 5.85552 32.0151 9.10352C32.0151 12.3515 29.3725 14.9941 26.1245 14.9941C22.8765 14.9941 20.2339 12.3515 20.2339 9.10352ZM27.4839 15.7635V29.4941H25.6714V17.4474L27.3321 15.7867C27.3824 15.7776 27.434 15.7735 27.4839 15.7635ZM24.0465 19.0723L24.7651 18.3536V29.4941H22.9526V19.0723H24.0465ZM11.1714 29.4941H9.35889V25.5216L11.1714 23.4504V29.4941ZM12.0776 22.6973H13.8901V29.4941H12.0776V22.6973ZM14.7964 22.6973H16.6089V29.4941H14.7964V22.6973ZM17.5151 22.395L19.3276 19.9785V29.4941H17.5151V22.395ZM20.2339 19.0723H22.0464V29.4941H20.2339V19.0723ZM8.45264 26.5574V29.4941H5.88296L8.45264 26.5574ZM28.3901 29.4941V15.5039C29.0467 15.2705 29.6562 14.9402 30.2026 14.5283V29.4941H28.3901Z"/>
</mask>
<path d="M32.9214 9.10352C32.9214 5.35572 29.8723 2.30664 26.1245 2.30664C22.3767 2.30664 19.3276 5.35572 19.3276 9.10352C19.3276 11.989 21.1379 14.454 23.6804 15.4382L22.765 16.3535H19.1219L15.95 19.9785H10.5202L4.94817 26.0146L5.61381 26.6295L10.9167 20.8848H16.3619L19.5338 17.2598H23.1407L24.6627 15.7377C25.0778 15.8293 25.5069 15.88 25.9464 15.8913L23.6713 18.166H19.5542L16.8354 21.791H11.4188L4.82764 29.3238V30.4004H31.1089V13.7091C32.2299 12.4965 32.9214 10.8811 32.9214 9.10352ZM20.2339 9.10352C20.2339 5.85552 22.8765 3.21289 26.1245 3.21289C29.3725 3.21289 32.0151 5.85552 32.0151 9.10352C32.0151 12.3515 29.3725 14.9941 26.1245 14.9941C22.8765 14.9941 20.2339 12.3515 20.2339 9.10352ZM27.4839 15.7635V29.4941H25.6714V17.4474L27.3321 15.7867C27.3824 15.7776 27.434 15.7735 27.4839 15.7635ZM24.0465 19.0723L24.7651 18.3536V29.4941H22.9526V19.0723H24.0465ZM11.1714 29.4941H9.35889V25.5216L11.1714 23.4504V29.4941ZM12.0776 22.6973H13.8901V29.4941H12.0776V22.6973ZM14.7964 22.6973H16.6089V29.4941H14.7964V22.6973ZM17.5151 22.395L19.3276 19.9785V29.4941H17.5151V22.395ZM20.2339 19.0723H22.0464V29.4941H20.2339V19.0723ZM8.45264 26.5574V29.4941H5.88296L8.45264 26.5574ZM28.3901 29.4941V15.5039C29.0467 15.2705 29.6562 14.9402 30.2026 14.5283V29.4941H28.3901Z" fill="#0E750E"/>
<path d="M23.6804 15.4382L24.3875 16.1453L25.473 15.0598L24.0413 14.5056L23.6804 15.4382ZM22.765 16.3535V17.3535H23.1793L23.4721 17.0606L22.765 16.3535ZM19.1219 16.3535V15.3535H18.6682L18.3693 15.695L19.1219 16.3535ZM15.95 19.9785V20.9785H16.4038L16.7026 20.637L15.95 19.9785ZM10.5202 19.9785V18.9785H10.0824L9.78546 19.3002L10.5202 19.9785ZM4.94817 26.0146L4.21338 25.3363L3.53531 26.0708L4.26962 26.7491L4.94817 26.0146ZM5.61381 26.6295L4.93526 27.364L5.67008 28.0428L6.34861 27.3078L5.61381 26.6295ZM10.9167 20.8848V19.8848H10.4789L10.1819 20.2065L10.9167 20.8848ZM16.3619 20.8848V21.8848H16.8157L17.1145 21.5433L16.3619 20.8848ZM19.5338 17.2598V16.2598H19.08L18.7812 16.6013L19.5338 17.2598ZM23.1407 17.2598V18.2598H23.5549L23.8478 17.9669L23.1407 17.2598ZM24.6627 15.7377L24.8781 14.7612L24.343 14.6432L23.9556 15.0306L24.6627 15.7377ZM25.9464 15.8913L26.6535 16.5985L28.3006 14.9517L25.9722 14.8917L25.9464 15.8913ZM23.6713 18.166V19.166H24.0854L24.3783 18.8732L23.6713 18.166ZM19.5542 18.166V17.166H19.0542L18.7542 17.566L19.5542 18.166ZM16.8354 21.791V22.791H17.3354L17.6354 22.391L16.8354 21.791ZM11.4188 21.791V20.791H10.965L10.6662 21.1325L11.4188 21.791ZM4.82764 29.3238L4.07506 28.6653L3.82764 28.948V29.3238H4.82764ZM4.82764 30.4004H3.82764V31.4004H4.82764V30.4004ZM31.1089 30.4004V31.4004H32.1089V30.4004H31.1089ZM31.1089 13.7091L30.3746 13.0302L30.1089 13.3176V13.7091H31.1089ZM27.4839 15.7635H28.4839V14.5437L27.2878 14.783L27.4839 15.7635ZM27.4839 29.4941V30.4941H28.4839V29.4941H27.4839ZM25.6714 29.4941H24.6714V30.4941H25.6714V29.4941ZM25.6714 17.4474L24.9643 16.7403L24.6714 17.0331V17.4474H25.6714ZM27.3321 15.7867L27.1548 14.8025L26.8465 14.8581L26.625 15.0795L27.3321 15.7867ZM24.0465 19.0723V20.0723H24.4607L24.7536 19.7794L24.0465 19.0723ZM24.7651 18.3536H25.7651V15.9394L24.058 17.6465L24.7651 18.3536ZM24.7651 29.4941V30.4941H25.7651V29.4941H24.7651ZM22.9526 29.4941H21.9526V30.4941H22.9526V29.4941ZM22.9526 19.0723V18.0723H21.9526V19.0723H22.9526ZM11.1714 29.4941V30.4941H12.1714V29.4941H11.1714ZM9.35889 29.4941H8.35889V30.4941H9.35889V29.4941ZM9.35889 25.5216L8.60634 24.8631L8.35889 25.1458V25.5216H9.35889ZM11.1714 23.4504H12.1714V20.7891L10.4188 22.7918L11.1714 23.4504ZM12.0776 22.6973V21.6973H11.0776V22.6973H12.0776ZM13.8901 22.6973H14.8901V21.6973H13.8901V22.6973ZM13.8901 29.4941V30.4941H14.8901V29.4941H13.8901ZM12.0776 29.4941H11.0776V30.4941H12.0776V29.4941ZM14.7964 22.6973V21.6973H13.7964V22.6973H14.7964ZM16.6089 22.6973H17.6089V21.6973H16.6089V22.6973ZM16.6089 29.4941V30.4941H17.6089V29.4941H16.6089ZM14.7964 29.4941H13.7964V30.4941H14.7964V29.4941ZM17.5151 22.395L16.7152 21.795L16.5151 22.0617V22.395H17.5151ZM19.3276 19.9785H20.3276V16.9787L18.5277 19.3785L19.3276 19.9785ZM19.3276 29.4941V30.4941H20.3276V29.4941H19.3276ZM17.5151 29.4941H16.5151V30.4941H17.5151V29.4941ZM20.2339 19.0723V18.0723H19.2339V19.0723H20.2339ZM22.0464 19.0723H23.0464V18.0723H22.0464V19.0723ZM22.0464 29.4941V30.4941H23.0464V29.4941H22.0464ZM20.2339 29.4941H19.2339V30.4941H20.2339V29.4941ZM8.45264 26.5574H9.45264V23.896L7.70007 25.8989L8.45264 26.5574ZM8.45264 29.4941V30.4941H9.45264V29.4941H8.45264ZM5.88296 29.4941L5.1304 28.8356L3.67916 30.4941H5.88296V29.4941ZM28.3901 29.4941H27.3901V30.4941H28.3901V29.4941ZM28.3901 15.5039L28.0552 14.5617L27.3901 14.798V15.5039H28.3901ZM30.2026 14.5283H31.2026V12.5224L29.6007 13.7298L30.2026 14.5283ZM30.2026 29.4941V30.4941H31.2026V29.4941H30.2026ZM33.9214 9.10352C33.9214 4.80343 30.4246 1.30664 26.1245 1.30664V3.30664C29.32 3.30664 31.9214 5.908 31.9214 9.10352H33.9214ZM26.1245 1.30664C21.8244 1.30664 18.3276 4.80343 18.3276 9.10352H20.3276C20.3276 5.908 22.929 3.30664 26.1245 3.30664V1.30664ZM18.3276 9.10352C18.3276 12.4184 20.4073 15.2435 23.3194 16.3708L24.0413 14.5056C21.8685 13.6645 20.3276 11.5596 20.3276 9.10352H18.3276ZM22.9732 14.7311L22.0579 15.6464L23.4721 17.0606L24.3875 16.1453L22.9732 14.7311ZM22.765 15.3535H19.1219V17.3535H22.765V15.3535ZM18.3693 15.695L15.1975 19.32L16.7026 20.637L19.8745 17.012L18.3693 15.695ZM15.95 18.9785H10.5202V20.9785H15.95V18.9785ZM9.78546 19.3002L4.21338 25.3363L5.68295 26.6929L11.255 20.6568L9.78546 19.3002ZM4.26962 26.7491L4.93526 27.364L6.29236 25.8949L5.62672 25.28L4.26962 26.7491ZM6.34861 27.3078L11.6515 21.5631L10.1819 20.2065L4.87901 25.9512L6.34861 27.3078ZM10.9167 21.8848H16.3619V19.8848H10.9167V21.8848ZM17.1145 21.5433L20.2864 17.9183L18.7812 16.6013L15.6094 20.2263L17.1145 21.5433ZM19.5338 18.2598H23.1407V16.2598H19.5338V18.2598ZM23.8478 17.9669L25.3698 16.4448L23.9556 15.0306L22.4336 16.5527L23.8478 17.9669ZM24.4474 16.7143C24.9282 16.8203 25.421 16.8781 25.9207 16.891L25.9722 14.8917C25.5928 14.8819 25.2274 14.8382 24.8781 14.7612L24.4474 16.7143ZM25.2394 15.1842L22.9643 17.4588L24.3783 18.8732L26.6535 16.5985L25.2394 15.1842ZM23.6713 17.166H19.5542V19.166H23.6713V17.166ZM18.7542 17.566L16.0354 21.191L17.6354 22.391L20.3542 18.766L18.7542 17.566ZM16.8354 20.791H11.4188V22.791H16.8354V20.791ZM10.6662 21.1325L4.07506 28.6653L5.58021 29.9823L12.1714 22.4495L10.6662 21.1325ZM3.82764 29.3238V30.4004H5.82764V29.3238H3.82764ZM4.82764 31.4004H31.1089V29.4004H4.82764V31.4004ZM32.1089 30.4004V13.7091H30.1089V30.4004H32.1089ZM31.8432 14.3879C33.1256 13.0008 33.9214 11.1463 33.9214 9.10352H31.9214C31.9214 10.6159 31.3342 11.9923 30.3746 13.0302L31.8432 14.3879ZM21.2339 9.10352C21.2339 6.4078 23.4288 4.21289 26.1245 4.21289V2.21289C22.3242 2.21289 19.2339 5.30323 19.2339 9.10352H21.2339ZM26.1245 4.21289C28.8202 4.21289 31.0151 6.4078 31.0151 9.10352H33.0151C33.0151 5.30323 29.9248 2.21289 26.1245 2.21289V4.21289ZM31.0151 9.10352C31.0151 11.7992 28.8202 13.9941 26.1245 13.9941V15.9941C29.9248 15.9941 33.0151 12.9038 33.0151 9.10352H31.0151ZM26.1245 13.9941C23.4288 13.9941 21.2339 11.7992 21.2339 9.10352H19.2339C19.2339 12.9038 22.3242 15.9941 26.1245 15.9941V13.9941ZM26.4839 15.7635V29.4941H28.4839V15.7635H26.4839ZM27.4839 28.4941H25.6714V30.4941H27.4839V28.4941ZM26.6714 29.4941V17.4474H24.6714V29.4941H26.6714ZM26.3785 18.1545L28.0392 16.4938L26.625 15.0795L24.9643 16.7403L26.3785 18.1545ZM27.5094 16.7708C27.5071 16.7712 27.5065 16.7712 27.5406 16.7666C27.565 16.7634 27.6197 16.7562 27.68 16.7441L27.2878 14.783C27.2982 14.7809 27.3021 14.7807 27.2757 14.7843C27.2662 14.7855 27.2471 14.788 27.2287 14.7907C27.209 14.7935 27.1834 14.7973 27.1548 14.8025L27.5094 16.7708ZM24.7536 19.7794L25.4722 19.0607L24.058 17.6465L23.3394 18.3652L24.7536 19.7794ZM23.7651 18.3536V29.4941H25.7651V18.3536H23.7651ZM24.7651 28.4941H22.9526V30.4941H24.7651V28.4941ZM23.9526 29.4941V19.0723H21.9526V29.4941H23.9526ZM22.9526 20.0723H24.0465V18.0723H22.9526V20.0723ZM11.1714 28.4941H9.35889V30.4941H11.1714V28.4941ZM10.3589 29.4941V25.5216H8.35889V29.4941H10.3589ZM10.1114 26.1801L11.9239 24.1089L10.4188 22.7918L8.60634 24.8631L10.1114 26.1801ZM10.1714 23.4504V29.4941H12.1714V23.4504H10.1714ZM12.0776 23.6973H13.8901V21.6973H12.0776V23.6973ZM12.8901 22.6973V29.4941H14.8901V22.6973H12.8901ZM13.8901 28.4941H12.0776V30.4941H13.8901V28.4941ZM13.0776 29.4941V22.6973H11.0776V29.4941H13.0776ZM14.7964 23.6973H16.6089V21.6973H14.7964V23.6973ZM15.6089 22.6973V29.4941H17.6089V22.6973H15.6089ZM16.6089 28.4941H14.7964V30.4941H16.6089V28.4941ZM15.7964 29.4941V22.6973H13.7964V29.4941H15.7964ZM18.3151 22.9951L20.1276 20.5785L18.5277 19.3785L16.7152 21.795L18.3151 22.9951ZM18.3276 19.9785V29.4941H20.3276V19.9785H18.3276ZM19.3276 28.4941H17.5151V30.4941H19.3276V28.4941ZM18.5151 29.4941V22.395H16.5151V29.4941H18.5151ZM20.2339 20.0723H22.0464V18.0723H20.2339V20.0723ZM21.0464 19.0723V29.4941H23.0464V19.0723H21.0464ZM22.0464 28.4941H20.2339V30.4941H22.0464V28.4941ZM21.2339 29.4941V19.0723H19.2339V29.4941H21.2339ZM7.45264 26.5574V29.4941H9.45264V26.5574H7.45264ZM8.45264 28.4941H5.88296V30.4941H8.45264V28.4941ZM6.63553 30.1527L9.20521 27.216L7.70007 25.8989L5.1304 28.8356L6.63553 30.1527ZM29.3901 29.4941V15.5039H27.3901V29.4941H29.3901ZM28.725 16.4462C29.4784 16.1784 30.1778 15.7993 30.8045 15.3269L29.6007 13.7298C29.1346 14.0811 28.615 14.3627 28.0552 14.5617L28.725 16.4462ZM29.2026 14.5283V29.4941H31.2026V14.5283H29.2026ZM30.2026 28.4941H28.3901V30.4941H30.2026V28.4941Z" fill="black" mask="url(#path-11-inside-3_16270_16666)"/>
<path d="M7.29639 19.0723V19.3223H7.54639H8.45264H8.70264V19.0723V17.5098H9.35889H9.60889V17.2598V11.8223V11.5723H9.35889H8.70264V10.0098V9.75977H8.45264H7.54639H7.29639V10.0098V11.5723H6.64014H6.39014V11.8223V17.2598V17.5098H6.64014H7.29639V19.0723Z" fill="#41F50C" stroke="black" stroke-width="0.5"/>
<path d="M10.9214 16.8066V17.0566H11.1714H12.0776H12.3276V16.8066V15.2441H12.9839H13.2339V14.9941V10.4629V10.2129H12.9839H12.3276V8.65039V8.40039H12.0776H11.1714H10.9214V8.65039V10.2129H10.2651H10.0151V10.4629V14.9941V15.2441H10.2651H10.9214V16.8066Z" fill="#41F50C" stroke="black" stroke-width="0.5"/>
<path d="M14.5464 13.6348V13.8848H14.7964H15.7026H15.9526V13.6348V12.0723H16.6089H16.8589V11.8223V8.19727V7.94727H16.6089H15.9526V6.38477V6.13477H15.7026H14.7964H14.5464V6.38477V7.94727H13.8901H13.6401V8.19727V11.8223V12.0723H13.8901H14.5464V13.6348Z" fill="#41F50C" stroke="black" stroke-width="0.5"/>
</g>
<defs>
<clipPath id="clip0_16270_16666">
<rect width="30" height="30" fill="white" transform="translate(0.914062 0.881836)"/>
</clipPath>
</defs>
</svg>
