<svg width="15" height="26" viewBox="0 0 15 26" fill="none" xmlns="http://www.w3.org/2000/svg">
<path d="M10.0045 10.6997L9.25251 10.938L10.0045 11.1763L13.6346 12.3267L10.0045 13.4771L9.25251 13.7155L10.0045 13.9538L13.6346 15.1042L7.62582 17.0085L1.61706 15.1042L5.24712 13.9538L5.99912 13.7155L5.24712 13.4771L1.61707 12.3267L5.24712 11.1763L5.99912 10.938L5.24712 10.6997L1.20642 9.4191L7.62582 1.12524L14.0452 9.4191L10.0045 10.6997Z" fill="#38F700" stroke="black" stroke-width="0.5"/>
<path d="M7.55029 19.1757L7.62582 19.1996L7.70135 19.1757L13.7194 17.2684L7.62582 24.5472L1.53218 17.2684L7.55029 19.1757Z" fill="#38F700" stroke="black" stroke-width="0.5"/>
<path d="M7.87598 11.3744V1.44824L14.0454 9.4191L7.87598 11.3744Z" fill="#218D00" stroke="black" stroke-width="0.5"/>
<path d="M7.87598 19.1204L13.7196 17.2684L7.87598 24.2486V19.1204Z" fill="#218D00" stroke="black" stroke-width="0.5"/>
<path d="M7.55028 11.9542L7.62582 11.9781L7.70135 11.9542L10.08 11.2002L13.6346 12.3267L7.62582 14.2311L1.61706 12.3267L5.17159 11.2002L7.55028 11.9542Z" fill="#A5FF8B" stroke="black" stroke-width="0.5"/>
<path d="M7.55028 14.7315L7.62582 14.7555L7.70135 14.7315L10.08 13.9776L13.6346 15.1041L7.62582 17.0084L1.61706 15.1041L5.17159 13.9776L7.55028 14.7315Z" fill="#A5FF8B" stroke="black" stroke-width="0.5"/>
<mask id="path-7-inside-1_17513_6862" fill="white">
<path d="M2.98082 6.71897C3.15153 6.8509 3.39684 6.81955 3.52877 6.64885C3.67413 6.46081 3.62785 6.21975 3.46442 6.09343C3.30314 5.96878 3.05827 5.98074 2.91071 6.17097C2.77877 6.34167 2.81012 6.58699 2.98082 6.71897Z"/>
</mask>
<path d="M2.98082 6.71897C3.15153 6.8509 3.39684 6.81955 3.52877 6.64885C3.67413 6.46081 3.62785 6.21975 3.46442 6.09343C3.30314 5.96878 3.05827 5.98074 2.91071 6.17097C2.77877 6.34167 2.81012 6.58699 2.98082 6.71897Z" fill="#218D00"/>
<path d="M2.98082 6.71897L2.67499 7.11453L2.67506 7.11458L2.98082 6.71897ZM3.52877 6.64885L3.13319 6.34305L3.13316 6.34309L3.52877 6.64885ZM3.46442 6.09343L3.15864 6.48904L3.15864 6.48904L3.46442 6.09343ZM2.91071 6.17097L2.51563 5.86452L2.51509 5.86521L2.91071 6.17097ZM2.67506 7.11458C3.06411 7.41527 3.62347 7.34395 3.92439 6.95461L3.13316 6.34309C3.17021 6.29516 3.23894 6.28653 3.28659 6.32335L2.67506 7.11458ZM3.92435 6.95465C4.24475 6.5402 4.1441 5.98683 3.77019 5.69783L3.15864 6.48904C3.13636 6.47182 3.12122 6.44609 3.11715 6.4168C3.11252 6.38349 3.12343 6.35567 3.13319 6.34305L3.92435 6.95465ZM3.77019 5.69783C3.40189 5.41316 2.84078 5.44534 2.51563 5.86452L3.30579 6.47742C3.2967 6.48914 3.27233 6.50717 3.23811 6.51101C3.20883 6.51429 3.18074 6.50612 3.15864 6.48904L3.77019 5.69783ZM2.51509 5.86521C2.21438 6.25429 2.28577 6.81359 2.67499 7.11453L3.28666 6.32341C3.33447 6.36038 3.34317 6.42906 3.30632 6.47674L2.51509 5.86521Z" fill="black" mask="url(#path-7-inside-1_17513_6862)"/>
<path d="M7.58347 14.6273L7.58354 14.6273C7.59048 14.6295 7.59699 14.6318 7.60302 14.634C7.67803 14.6186 7.84278 14.5722 8.22809 14.4526C8.65815 14.3191 9.34476 14.1006 10.4528 13.748C11.4344 13.4356 12.7469 13.0179 14.5047 12.4608L14.5047 12.4608C14.6345 12.4197 14.6345 12.2338 14.5047 12.1927L12.3295 11.5034L12.3295 11.5034C12.2555 11.4799 12.1764 11.5209 12.153 11.595C12.1295 11.669 12.1705 11.748 12.2445 11.7715C12.2445 11.7715 12.2445 11.7715 12.2446 11.7715L13.2446 12.0884L13.9967 12.3267L13.2446 12.5651L7.70145 14.3217L7.62592 14.3457L7.55039 14.3217L2.00727 12.5651L1.25525 12.3267L2.00727 12.0884L5.09638 11.1095L5.1719 11.0855L5.24743 11.1095C5.84006 11.2973 6.28531 11.4402 6.62254 11.5485C7.00064 11.6698 7.24297 11.7476 7.40501 11.7962C7.55989 11.8427 7.61849 11.855 7.64381 11.8576C7.6475 11.8565 7.65059 11.8555 7.65526 11.854C7.6586 11.8529 7.66274 11.8516 7.66847 11.8498C9.62578 11.2295 11.0304 10.789 12.0412 10.4721C12.8925 10.2051 13.4646 10.0257 13.8523 9.90024C14.2824 9.76106 14.4658 9.69427 14.5504 9.65268C14.5594 9.64825 14.566 9.64469 14.5708 9.64201C14.5737 9.63674 14.5779 9.62932 14.5838 9.61905L14.5838 9.61898C14.5961 9.59764 14.6008 9.58061 14.6023 9.55929L14.6023 9.55907C14.6027 9.5538 14.6031 9.5488 14.6036 9.54412C14.5999 9.53755 14.5951 9.52937 14.589 9.5194C14.5188 9.40518 14.3462 9.16875 13.9328 8.62888C13.5012 8.06535 12.8172 7.18363 11.7347 5.7884C10.7604 4.53262 9.46332 2.86085 7.73717 0.630665L7.73697 0.630406C7.68913 0.568432 7.59679 0.558857 7.53728 0.607662L7.53703 0.607868C7.53611 0.608619 7.5352 0.609358 7.53429 0.610082C7.53075 0.614308 7.52554 0.620595 7.51826 0.629581C7.47385 0.684404 7.37814 0.806751 7.15983 1.08827C6.94266 1.36833 6.60605 1.80346 6.08152 2.48151C5.55532 3.16173 4.84 4.0864 3.86645 5.34422C3.81892 5.40565 3.83019 5.49397 3.89156 5.54149L7.58347 14.6273ZM7.58347 14.6273L5.24743 13.8869L5.1719 13.863L5.09638 13.8869L2.00727 14.8659L1.25525 15.1042L2.00727 15.3425L7.55044 17.0992L7.62597 17.1231L7.70149 17.0992L13.2447 15.3425L13.9967 15.1042L13.2447 14.8659L12.4916 14.6272C12.4916 14.6272 12.4916 14.6272 12.4916 14.6272C12.4175 14.6037 12.3765 14.5247 12.4 14.4507L12.4 14.4506M7.58347 14.6273L12.4 14.4506M0.517729 9.82921C0.525524 9.8368 0.53153 9.84327 0.537896 9.84937C0.605723 9.91432 0.714491 9.93652 3.4649 10.8069L3.8033 10.6997L3.87882 10.938L3.8033 11.1763C3.68641 11.1393 3.57367 11.1036 3.46495 11.0692L0.671691 11.9544M0.517729 9.82921L0.671691 11.9544M0.517729 9.82921C0.471242 9.78409 0.439161 9.73121 0.419726 9.67339M0.517729 9.82921L0.747215 12.1927M0.517729 9.82921L0.517731 9.82921L0.517729 9.82921ZM0.671691 11.9544L0.747215 12.1927M0.671691 11.9544L0.747215 12.1927M0.419726 9.67339L0.656756 9.59391M0.419726 9.67339C0.348854 9.46203 0.378525 9.42413 1.17324 8.40908C1.36631 8.16248 1.60453 7.85822 1.89743 7.47978L0.656696 9.59374L0.419726 9.67339ZM0.656756 9.59391C0.664035 9.61549 0.675208 9.63366 0.691848 9.64982L0.69209 9.65005C0.696635 9.65447 0.70012 9.65789 0.702759 9.6605C0.702854 9.66054 0.70295 9.66059 0.703047 9.66063C0.738736 9.67684 0.819145 9.70605 1.02245 9.77208C1.23532 9.84121 1.56725 9.94585 2.0934 10.1117C2.55061 10.2558 3.15448 10.4462 3.95435 10.6997L4.70637 10.938L3.95435 11.1763L0.747215 12.1927M0.656756 9.59391C0.648536 9.5694 0.645838 9.55879 0.644904 9.55414C0.650045 9.53531 0.672515 9.48332 0.767818 9.34832C0.882086 9.18647 1.06708 8.95021 1.36256 8.57285C1.55579 8.32606 1.79627 8.01894 2.09512 7.63282C2.14263 7.57144 2.23102 7.56015 2.29248 7.60769C2.35385 7.65522 2.36512 7.74354 2.31757 7.80497L1.24336 9.19287L1.0242 9.47603L1.36554 9.58421L7.15975 11.4204L7.48528 11.5236V11.1821V1.85969V1.12824L7.03758 1.70668L4.0889 5.51638L4.08889 5.51639C4.04139 5.57777 3.9531 5.58908 3.89159 5.54151L0.656756 9.59391ZM0.747215 12.1927C0.617278 12.2339 0.61764 12.4198 0.747186 12.4608M0.747215 12.1927L0.747186 12.4608M4.70643 13.7155L3.95439 13.9538L0.747214 14.9702M4.70643 13.7155L0.747214 14.9702M4.70643 13.7155L3.95439 13.4772L0.747214 12.4608L0.747186 12.4608M4.70643 13.7155L0.747186 12.4608M0.747214 14.9702C0.617278 15.0113 0.61764 15.1972 0.747186 15.2383L0.747216 15.2383L7.58347 17.4047L7.58354 17.4048C7.59048 17.407 7.59698 17.4092 7.60301 17.4115M0.747214 14.9702L7.60301 17.4115M7.60301 17.4115C7.67802 17.3961 7.84275 17.3497 8.22809 17.2301C8.65818 17.0966 9.34484 16.8781 10.453 16.5254C11.4346 16.213 12.747 15.7953 14.5047 15.2383C14.6345 15.1972 14.6344 15.0112 14.5047 14.9702L12.5767 14.3591L7.60301 17.4115ZM12.4 14.4506C12.4234 14.3769 12.5022 14.3357 12.5766 14.3591L12.4 14.4506ZM14.6098 9.50278L14.6098 9.50284L14.6098 9.50278ZM7.57444 14.6389C7.57445 14.6389 7.57487 14.6388 7.57566 14.6388L7.57444 14.6389ZM7.57445 17.4163C7.57447 17.4163 7.57488 17.4163 7.57565 17.4162L7.57445 17.4163ZM7.76661 11.1821V11.5236L8.09214 11.4204L13.8863 9.58421L14.2277 9.47603L14.0085 9.19287L8.21431 1.70668L7.76661 1.12824V1.85969V11.1821Z" fill="#218D00" stroke="black" stroke-width="0.5"/>
<path d="M14.4196 16.6367L14.4196 16.6367C14.5522 16.5947 14.6595 16.754 14.5699 16.861C12.7145 19.0774 11.3618 20.6933 10.3754 21.8717C9.47647 22.9455 8.88171 23.656 8.48779 24.1264C8.0746 24.6199 7.88263 24.8489 7.79243 24.9561C7.7507 25.0057 7.73192 25.0278 7.72332 25.0377C7.69279 25.0671 7.6533 25.0795 7.61205 25.0761C7.56715 25.0724 7.53683 25.0517 7.52437 25.0351L7.52465 25.0348L7.51607 25.0246L0.681717 16.861L0.68171 16.861C0.592396 16.7544 0.698889 16.5945 0.832049 16.6367C0.83205 16.6367 0.832052 16.6367 0.832054 16.6367L7.55028 18.7658L7.6258 18.7897L7.70133 18.7658L14.4196 16.6367ZM7.48516 19.2233V19.0403L7.31069 18.985L2.02543 17.31L1.20729 17.0507L1.75821 17.7088L7.04347 24.022L7.48516 24.5496V23.8615V19.2233ZM7.76645 23.8615V24.5496L8.20814 24.022L13.4933 17.7087L14.0443 17.0506L13.2261 17.3099L7.94092 18.9849L7.76645 19.0402V19.2232V23.8615Z" fill="#218D00" stroke="black" stroke-width="0.5"/>
</svg>
