<svg width="30" height="31" viewBox="0 0 30 31" fill="none" xmlns="http://www.w3.org/2000/svg">
<g clip-path="url(#clip0_16270_16642)">
<path d="M25.555 24.6319L20.7561 22.1061L23.3256 24.6853L19.6827 27.5656L16.851 22.9951L17.3221 26.9876L12.6787 27.0022L13.1207 23.0435L10.3181 27.5656L6.67523 24.6853L9.24956 22.1013L4.44096 24.6319L2.5127 19.6484L12.4067 17.0645L12.9264 18.4099L12.9507 18.3857L13.5821 18.8859L13.6647 18.167L16.2778 18.1573L16.3701 18.9247L17.0502 18.3857L17.0744 18.4099L17.5941 17.0645L27.4881 19.6484L25.555 24.6319Z" fill="#FC9707"/>
<path d="M25.5569 24.6302C26.9317 25.1635 28.4789 24.4844 29.0137 23.1059C29.547 21.7311 28.864 20.1825 27.4893 19.6491C26.1145 19.1158 24.5658 19.7987 24.0325 21.1735C23.4978 22.552 24.1821 24.0969 25.5569 24.6302Z" fill="#C57408"/>
<path opacity="0.2" d="M29.057 22.9707C28.819 22.2373 28.2653 21.6107 27.4882 21.3096C26.1136 20.7753 24.5642 21.4601 24.0347 22.8347C24.0153 22.8832 24.0007 22.9318 23.9862 22.9804C23.7967 22.4121 23.7967 21.7759 24.0347 21.1736C24.5642 19.799 26.1136 19.1142 27.4882 19.6484C28.819 20.1633 29.5039 21.6302 29.057 22.9707Z" fill="black"/>
<path d="M19.6836 27.564C20.4787 28.5693 21.9373 28.742 22.9453 27.9447C23.9505 27.1495 24.121 25.6883 23.3259 24.683C22.5307 23.6777 21.0694 23.5072 20.0642 24.3023C19.0562 25.0997 18.8884 26.5587 19.6836 27.564Z" fill="#C57408"/>
<path opacity="0.2" d="M22.9469 27.9447C22.8351 28.0321 22.7137 28.1098 22.5923 28.1778C23.0197 27.3861 22.9615 26.3856 22.3689 25.6376C21.6597 24.7438 20.4309 24.5107 19.4595 25.0304C19.6003 24.7536 19.8043 24.5058 20.0617 24.3018C21.0671 23.5052 22.5292 23.6801 23.3257 24.6856C24.1223 25.6861 23.9523 27.1481 22.9469 27.9447Z" fill="black"/>
<path d="M4.44326 24.6302C3.06853 25.1635 1.52133 24.4844 0.986528 23.1059C0.453195 21.7311 1.13619 20.1825 2.51093 19.6491C3.88573 19.1158 5.4344 19.7987 5.96766 21.1735C6.50246 22.552 5.81806 24.0969 4.44326 24.6302Z" fill="#C57408"/>
<path opacity="0.2" d="M4.44087 24.6325C3.85313 24.8608 3.23633 24.8656 2.67773 24.6908C2.736 24.6762 2.79427 24.6568 2.8526 24.6325C4.2272 24.0982 4.912 22.5536 4.37773 21.1743C4.07173 20.3874 3.43547 19.8288 2.68747 19.5909C4.01833 19.1731 5.456 19.858 5.96607 21.1743C6.50033 22.5536 5.81547 24.0982 4.44087 24.6325Z" fill="black"/>
<path d="M10.3167 27.564C9.52157 28.5693 8.06303 28.742 7.05503 27.9447C6.04977 27.1495 5.8793 25.6883 6.67443 24.683C7.46963 23.6777 8.9309 23.5072 9.9361 24.3023C10.9442 25.0997 11.1119 26.5587 10.3167 27.564Z" fill="#C57408"/>
<path opacity="0.2" d="M10.3184 27.5658C9.71129 28.3333 8.72043 28.615 7.83643 28.3478C8.28816 28.2264 8.70583 27.9593 9.01669 27.5658C9.81329 26.5604 9.64329 25.0984 8.63783 24.3018C8.39496 24.1124 8.12783 23.9764 7.85096 23.8986C8.54556 23.6898 9.32263 23.8161 9.93469 24.3018C10.945 25.0984 11.1102 26.5604 10.3184 27.5658Z" fill="black"/>
<path d="M17.3218 26.9866C17.3261 28.2684 16.2928 29.3122 15.0075 29.3165C13.7258 29.3207 12.6821 28.2837 12.6777 27.0018C12.6735 25.7199 13.7103 24.6761 14.992 24.6719C16.2773 24.6677 17.3175 25.7046 17.3218 26.9866Z" fill="#C57408"/>
<path opacity="0.2" d="M17.3222 26.9878C17.327 28.2701 16.2924 29.3144 15.0053 29.3144C14.7382 29.3144 14.4856 29.2706 14.2476 29.1881C15.1656 28.882 15.8213 28.0078 15.8164 26.9878C15.8116 25.9726 15.1607 25.108 14.2476 24.7972C14.4807 24.7146 14.7284 24.6709 14.9907 24.6709C16.2779 24.666 17.3174 25.7055 17.3222 26.9878Z" fill="black"/>
<path d="M13.8604 -0.797852C18.5756 0.916682 19.2608 7.18655 19.2608 7.18655C19.6528 5.76075 21.15 5.83202 21.15 5.83202C19.8311 9.82422 21.3995 12.5689 21.3995 12.5689C22.3619 10.1807 24.4062 11.2959 24.4062 11.2959C24.4062 11.2959 23.3346 11.8142 23.2155 14.5205C23.0964 17.2268 20.0294 20.7988 15 20.7988C9.97055 20.7988 6.90348 17.2268 6.78442 14.5205C6.66535 11.8143 5.59375 11.2959 5.59375 11.2959C5.59375 11.2959 7.63802 10.1807 8.60042 12.5689C8.60042 12.5689 10.1688 9.82422 8.84995 5.83202C8.84995 5.83202 10.347 5.76075 10.7392 7.18655C10.7392 7.18655 11.06 4.15675 13.0561 2.76662C15.0522 1.37648 13.8604 -0.797852 13.8604 -0.797852Z" fill="#FACB00"/>
<path opacity="0.2" d="M14.2042 0.438729C14.1508 -0.265538 13.8594 -0.799805 13.8594 -0.799805C17.2059 0.419329 18.5222 3.93106 19.003 5.8642C18.9983 5.865 18.9936 5.86586 18.9888 5.86673C18.0987 6.02853 17.2036 5.5634 16.9093 4.70793C16.4362 3.33226 15.6119 1.65806 14.2042 0.438729Z" fill="black"/>
<path opacity="0.2" d="M19.1728 6.60773C19.236 6.97206 19.2602 7.18573 19.2602 7.18573C19.6536 5.76253 21.1497 5.8306 21.1497 5.8306C20.3968 8.1086 20.5862 9.98346 20.8874 11.1686C20.8828 11.1704 20.8782 11.1722 20.8737 11.1741C20.007 11.5237 19.0427 11.0057 18.9328 10.0776C18.8206 9.13146 18.8356 7.95293 19.1728 6.60773Z" fill="black"/>
<path opacity="0.2" d="M24.4042 11.2941C24.4042 11.2941 23.3357 11.8138 23.2142 14.5192C23.0976 17.2246 20.0279 20.7996 15.0007 20.7996C14.7045 20.7996 14.413 20.785 14.1265 20.7656C18.6339 20.377 21.3491 17.0644 21.4656 14.5193C21.5821 11.8139 22.6556 11.2942 22.6556 11.2942C22.6556 11.2942 22.6022 11.265 22.505 11.2262C23.4279 10.7598 24.4042 11.2941 24.4042 11.2941Z" fill="black"/>
<path d="M18.2808 17.515C18.2808 19.3292 16.8109 20.7992 14.9967 20.7992C13.1897 20.7992 11.7197 19.3292 11.7197 17.515C11.7197 15.7008 14.9967 8.55664 14.9967 8.55664C14.9967 8.55664 18.2808 15.7008 18.2808 17.515Z" fill="#FD4746"/>
<path d="M16.7528 19.045C16.7528 20.0141 15.9676 20.7993 14.9985 20.7993C14.0332 20.7993 13.248 20.0141 13.248 19.045C13.248 18.076 14.9985 14.2598 14.9985 14.2598C14.9985 14.2598 16.7528 18.076 16.7528 19.045Z" fill="#FACB00"/>
<path d="M24.8416 24.6657C25.0215 24.7855 25.2156 24.8889 25.4252 24.9703H25.4254C26.992 25.5779 28.7505 24.7923 29.3534 23.2381C29.96 21.6744 29.1848 19.9165 27.6211 19.3099C27.4118 19.2287 27.1988 19.1743 26.9855 19.1413L22.2054 17.892C23.0634 16.7984 23.5334 15.5909 23.5798 14.5369C23.685 12.1403 24.565 11.6247 24.565 11.6243C24.6878 11.5647 24.7673 11.4417 24.7706 11.3051C24.7739 11.1687 24.7006 11.0418 24.5808 10.9766C24.5403 10.9543 23.5769 10.4389 22.5751 10.7995C22.1209 10.9621 21.7393 11.2712 21.4341 11.7215C21.0793 10.7065 20.6166 8.609 21.496 5.9468C21.5316 5.83867 21.5147 5.72007 21.4502 5.62613C21.3856 5.5322 21.2811 5.47413 21.1672 5.46867C20.7377 5.4466 19.9864 5.58867 19.4476 6.1356C19.0335 4.23493 17.7326 0.222864 13.985 -1.13994C13.8427 -1.19234 13.6833 -1.14967 13.5849 -1.03514C13.4862 -0.920602 13.4687 -0.756469 13.5406 -0.623402C13.5823 -0.545869 14.5452 1.286 12.8478 2.46806C11.4652 3.4312 10.839 5.08826 10.5682 6.15173C10.0282 5.59133 9.26885 5.4452 8.83292 5.46867C8.71905 5.47413 8.61452 5.5322 8.54998 5.62613C8.48545 5.72007 8.46865 5.83867 8.50445 5.9468C9.38385 8.609 8.92111 10.7065 8.56631 11.7215C8.26111 11.2711 7.87952 10.9621 7.42558 10.7995C6.42165 10.4392 5.45998 10.9541 5.41938 10.9766C5.30291 11.0401 5.23485 11.1647 5.23438 11.2975C5.23391 11.4303 5.31025 11.5553 5.42652 11.6198C5.43532 11.6248 6.31518 12.1404 6.42045 14.5372C6.46685 15.5911 6.93678 16.7986 7.79485 17.892C7.74618 17.9045 2.42798 19.2909 2.37918 19.3099C0.815514 19.9165 0.0403145 21.6744 0.646914 23.2381C1.25031 24.7935 3.00978 25.5775 4.57511 24.9703H4.57538C4.62398 24.9515 4.46545 25.0605 7.30151 23.538C7.25285 23.5868 6.35978 24.4829 6.41645 24.4261C5.53231 25.3731 5.55731 27.2248 6.82911 28.2307C7.98811 29.1474 9.69985 28.9616 10.6212 27.7612C11.1058 27.0027 11.5678 26.2443 12.5787 24.6061C12.5744 24.6419 12.3137 26.9671 12.3138 27.0033C12.3188 28.4818 13.5232 29.6811 15.0007 29.6811H15.0092C16.4938 29.6762 17.6915 28.4723 17.6866 26.9857C17.6864 26.9525 17.4082 24.6103 17.404 24.5775C17.6882 25.0381 19.3714 27.7569 19.3977 27.7902C19.9273 28.4597 20.714 28.8088 21.5075 28.8088C22.0912 28.8088 22.6788 28.62 23.1712 28.2306C24.335 27.3101 24.5324 25.6212 23.6116 24.4571C23.5223 24.3441 22.7475 23.5859 22.6986 23.5377L24.8416 24.6657ZM21.6661 18.504L25.181 19.4227C24.5232 19.7472 23.9786 20.3059 23.6929 21.0419C23.4072 21.7782 23.4325 22.5581 23.6994 23.2414L20.9735 21.8067L19.3596 20.1871C20.2734 19.7339 21.0411 19.1497 21.6661 18.504ZM28.6741 22.9743C28.2154 24.1569 26.883 24.7463 25.6993 24.2941L25.2365 24.0504C24.3627 23.4617 23.9755 22.3282 24.3722 21.3057C24.7686 20.2831 25.8183 19.7074 26.8597 19.8615L27.3672 19.9941C28.5514 20.4597 29.1331 21.7915 28.6741 22.9743ZM6.28025 11.4431C6.53805 11.39 6.86178 11.3713 7.17958 11.4853C7.63825 11.6497 8.00278 12.0602 8.26271 12.7053C8.31491 12.8348 8.43658 12.9231 8.57598 12.9325C8.71972 12.9439 8.84778 12.8711 8.91705 12.7499C8.98131 12.6375 10.4136 10.0631 9.36032 6.25893C9.73125 6.3602 10.2056 6.62013 10.388 7.28346C10.434 7.45186 10.5905 7.56686 10.7686 7.5498C10.943 7.5358 11.0826 7.39966 11.1014 7.2256C11.1044 7.19693 11.4318 4.34213 13.2643 3.06593C14.5903 2.1424 14.7105 0.839664 14.4945 -0.120136C18.2617 1.85806 18.8927 7.16986 18.8989 7.2268C18.9181 7.4004 19.058 7.53606 19.2324 7.55006C19.4058 7.5636 19.566 7.45213 19.6123 7.28346C19.7928 6.62746 20.2671 6.36633 20.639 6.26293C19.5878 10.0651 21.0192 12.6375 21.0834 12.7499C21.1527 12.8711 21.2814 12.9436 21.4245 12.9325C21.564 12.923 21.6856 12.8347 21.7378 12.7053C21.9968 12.0625 22.3594 11.6527 22.8154 11.4872C23.1358 11.3703 23.4615 11.3888 23.7202 11.4426C23.355 11.9172 22.9257 12.8248 22.8518 14.5049C22.777 16.2083 21.3385 18.4418 18.7962 19.6216L18.7725 19.5979C18.7694 19.6119 18.7615 19.6243 18.758 19.6383C18.3908 19.8065 18.0043 19.9557 17.5921 20.0751C18.2423 19.4159 18.645 18.5119 18.645 17.515C18.645 15.6428 15.4632 8.69906 15.3278 8.40433C15.2682 8.27506 15.139 8.19233 14.9967 8.19233C14.9967 8.19233 14.9967 8.19233 14.9964 8.19233C14.8542 8.19233 14.7249 8.27533 14.6656 8.40486C14.5304 8.6994 11.3554 15.6429 11.3554 17.5151C11.3554 18.5115 11.7569 19.415 12.4052 20.0741C9.11438 19.1201 7.23452 16.4612 7.14858 14.5049C7.07452 12.8253 6.64551 11.9177 6.28025 11.4431ZM16.7116 24.9259C16.2464 24.5403 15.6498 24.3079 15.0001 24.3079C14.9972 24.3079 14.994 24.3079 14.9911 24.3079C14.338 24.3101 13.7398 24.5469 13.275 24.9374L13.7055 21.0777C14.67 21.1945 15.357 21.1883 16.257 21.0828L16.7116 24.9259ZM13.612 19.045C13.612 18.4974 14.3647 16.5991 14.9987 15.1507C15.6338 16.5991 16.3882 18.4976 16.3882 19.045C16.3882 20.8812 13.612 20.915 13.612 19.045ZM17.0325 19.604C17.0819 19.4247 17.1168 19.2397 17.1168 19.045C17.1168 18.0257 15.5122 14.5057 15.3293 14.1075C15.2698 13.9782 15.1405 13.8955 14.9982 13.8955H14.998C14.8557 13.8955 14.7264 13.9785 14.6671 14.108C14.4845 14.5059 12.8834 18.026 12.8834 19.0451C12.8834 19.2407 12.9186 19.4267 12.9684 19.6067C12.4238 19.0758 12.0838 18.335 12.0838 17.5151C12.0838 16.2432 13.9556 11.7788 14.997 9.44106C16.0405 11.7786 17.9162 16.2432 17.9162 17.5151C17.9163 18.3335 17.5768 19.0733 17.0325 19.604ZM1.32611 22.9743C0.867581 21.7927 1.44745 20.4602 2.63298 19.9941L3.12791 19.8647C4.25225 19.6919 5.25445 20.3428 5.62805 21.3056C6.02478 22.328 5.63745 23.4617 4.76378 24.0505L4.30118 24.294C3.11725 24.7465 1.78485 24.1571 1.32611 22.9743ZM6.30078 23.2415C6.56765 22.5581 6.59298 21.7783 6.30731 21.0419C6.02171 20.3059 5.47725 19.7473 4.81945 19.4226L8.33405 18.504C8.95898 19.1497 9.72665 19.7338 10.6406 20.1871L9.02645 21.8069L6.30078 23.2415ZM7.28111 27.6591C6.43825 26.9923 6.28811 25.7699 6.95438 24.9183C7.06825 24.8341 7.51391 24.1659 8.49991 24.1659C8.93845 24.1659 9.36132 24.3122 9.71018 24.5883C10.4394 25.1651 10.6436 26.1597 10.2591 26.9657L10.0233 27.3461C9.35218 28.185 8.12385 28.3262 7.28111 27.6591ZM11.114 25.5863C10.9916 24.9874 10.6778 24.4247 10.1622 24.0167C9.66085 23.6202 9.04738 23.432 8.41605 23.4515L11.3557 20.5015C11.8617 20.6994 12.4058 20.8569 12.9842 20.9697L12.7667 22.9192L11.114 25.5863ZM15.0068 28.9526C15.0046 28.9526 15.0028 28.9526 15.0006 28.9526C13.9278 28.9526 13.0536 28.0845 13.0436 27.0125L13.0934 26.5663C13.2892 25.6951 14.064 25.0397 14.9936 25.0365H15.0002C15.9275 25.0365 16.7038 25.6866 16.9045 26.555L16.9571 26.999C16.9544 28.0829 16.0822 28.9491 15.0068 28.9526ZM16.9781 20.9785C17.5711 20.8653 18.1272 20.7038 18.6445 20.5014L21.5841 23.4513C20.9534 23.4317 20.3393 23.6203 19.838 24.0167C19.3224 24.4247 19.0086 24.9874 18.8862 25.5861L17.2016 22.8677L16.9781 20.9785ZM22.7191 27.6591C21.8749 28.3265 20.6478 28.1845 19.9769 27.3461L19.7411 26.9657C19.3566 26.1597 19.5608 25.1651 20.29 24.5883C21.0062 24.0213 22.0151 24.0233 22.7312 24.6026L23.0458 24.9183C23.7106 25.768 23.5637 26.9909 22.7191 27.6591Z" fill="black"/>
</g>
<defs>
<clipPath id="clip0_16270_16642">
<rect width="30" height="30" fill="white" transform="translate(0 0.881836)"/>
</clipPath>
</defs>
</svg>
